<svg width="160" height="108" viewBox="0 0 160 108" fill="none" xmlns="http://www.w3.org/2000/svg">
<path d="M12 108L148 108C154.627 108 160 102.627 160 96V42.54C160 35.9126 154.627 30.54 148 30.54L12 30.54C5.37259 30.54 0 35.9126 0 42.54V96C0 102.627 5.37259 108 12 108Z" fill="#EFE0FF"/>
<path d="M100.765 70.3748L99.3766 78.9268L89.4866 83.7598L91.0976 74.9598L100.765 70.3748Z" fill="#DADAF7"/>
<path d="M100.637 35.9174C100.637 35.9174 101.637 31.5804 99.1539 30.9614C97.6486 30.5862 96.1146 30.3374 94.5679 30.2174L78.7909 107.691L88.2479 107.679L100.637 35.9174Z" fill="#DADAF7"/>
<path d="M94.5678 30.0927C94.5678 30.0927 96.0548 30.0927 96.5508 30.7127C96.8653 31.2786 96.9953 31.9285 96.9228 32.5717L82.9798 107.678L29.0048 107.678L48.4628 28.9767C48.4628 28.9767 49.7028 25.6307 54.0368 26.6227L94.5678 30.0927Z" fill="#EAEAFF"/>
<path d="M90.9736 37.405C90.9736 37.405 91.2216 35.794 89.8586 35.67L51.6856 32.2L43.8776 69.258L79.8196 75.083C79.8196 75.083 83.6616 76.075 84.1576 73.224L90.9736 37.405Z" fill="white"/>
<path d="M106.961 107.803H111.299L96.0548 51.6587L94.4438 60.4587L106.961 107.803Z" fill="#DADAF7"/>
<path d="M19.4423 65.082C13.4423 65.082 11.1423 58.798 15.9223 55.911C16.7923 55.3953 17.8009 55.1624 18.8089 55.2447C19.8169 55.3269 20.7745 55.7201 21.5493 56.37C21.5493 56.37 21.5373 50.976 27.8823 51.076C34.2273 51.176 33.4823 57.93 33.4823 57.93C33.4823 57.93 36.7683 58.03 37.1653 60.967C37.6113 64.214 33.5463 65.082 31.4393 65.082H19.4423Z" fill="white"/>
<path d="M94.3323 72.9267L102.425 58.2027C102.281 56.7025 102.281 55.192 102.425 53.6917C102.741 52.3449 102.551 50.9291 101.892 49.7127C101.359 49.0557 99.7733 45.4737 100.826 44.1477C101.879 42.8217 104.011 43.6147 105.065 44.6807C106.119 45.7467 109.043 48.7957 109.043 48.7957C109.043 48.7957 116.603 49.1917 117.932 51.8447C119.261 54.4977 107.332 86.8447 103.89 90.6867C100.448 94.5287 90.3683 92.4097 85.7213 89.1007C81.0743 85.7917 88.3703 68.9527 88.3703 68.9527L94.3323 72.9267Z" fill="#F9D2DD"/>
<path d="M85.7311 89.0987C81.0961 85.7897 88.3871 68.9467 88.3871 68.9467L92.2871 71.5467L90.0931 91.3047C88.5485 90.7642 87.0819 90.0225 85.7311 89.0987Z" fill="#F9ACC0"/>
<path d="M101.384 48.7831L105.871 45.4621C106.809 46.4291 108.089 47.7671 108.709 48.3991L102.537 52.1621C102.578 51.3013 102.359 50.4481 101.909 49.7131C101.703 49.4214 101.527 49.1099 101.384 48.7831Z" fill="#F9ACC0"/>
<path d="M114.497 65.3652C114.497 64.5222 114.497 61.1262 113.171 60.3212C111.808 59.5032 107.871 60.1852 106.008 58.3382C104.801 56.9525 104.018 55.2488 103.752 53.4302L102.389 53.9632L102.426 53.7032C102.438 53.5792 102.463 53.4682 102.476 53.3442V53.2942C102.491 53.1915 102.5 53.088 102.501 52.9842V52.9592C102.513 52.7362 102.526 52.5252 102.526 52.3152L103.479 50.5052L113.332 50.8152C114.906 51.7202 117.372 50.7052 117.944 51.8432C118.452 52.8592 117.002 58.2632 114.833 64.7572C114.734 64.9668 114.622 65.1699 114.497 65.3652Z" fill="#F9ACC0"/>
<path d="M99.4123 56.3787L117.98 37.8127C118.129 37.6628 118.213 37.46 118.213 37.2487C118.213 37.0373 118.129 36.8346 117.98 36.6847C117.83 36.5357 117.628 36.4521 117.416 36.4521C117.205 36.4521 117.002 36.5357 116.852 36.6847L98.2863 55.2527C98.1373 55.4026 98.0536 55.6053 98.0536 55.8167C98.0536 56.028 98.1373 56.2308 98.2863 56.3807C98.4363 56.5288 98.6388 56.6117 98.8497 56.6113C99.0605 56.611 99.2627 56.5273 99.4123 56.3787Z" fill="white"/>
<path d="M99.3761 57.409C98.9761 58.599 97.5171 58.995 97.2571 59.801C97.177 60.0177 97.1476 60.2499 97.1712 60.4797C97.1948 60.7096 97.2707 60.931 97.3931 61.127C96.9058 60.8892 96.5039 60.5067 96.2422 60.0319C95.9805 59.557 95.8719 59.0129 95.9311 58.474C96.0671 56.479 97.2571 54.756 98.9791 55.686C99.2267 55.8887 99.4 56.1678 99.4719 56.4796C99.5437 56.7915 99.5101 57.1183 99.3761 57.409Z" fill="#E88524"/>
<path d="M114.497 57.9417C111.052 59.4037 109.056 59.4037 108.263 59.0077C107.47 58.6117 107.73 57.2847 107.73 57.2847C107.73 57.2847 106.404 57.1487 106.007 56.3547C105.891 56.1286 105.83 55.878 105.83 55.6237C105.83 55.3695 105.891 55.1189 106.007 54.8927C105.637 54.8181 105.29 54.6597 104.992 54.4298C104.693 54.2 104.451 53.9047 104.285 53.5667C104.156 53.3223 104.089 53.0501 104.089 52.7737C104.089 52.4974 104.156 52.2252 104.285 51.9807C103.88 51.95 103.495 51.7919 103.186 51.5291C102.876 51.2663 102.658 50.9123 102.562 50.5177C101.906 48.3987 108.796 42.9577 113.431 44.5567C116.108 45.4617 117.819 50.2667 118.079 51.1747C118.387 52.5445 118.196 53.9795 117.539 55.2205C116.882 56.4615 115.803 57.4267 114.497 57.9417Z" fill="#F9D2DD"/>
<path d="M109.738 49.0535L103.802 51.8535L109.738 49.0535Z" fill="#1F1F39"/>
<path d="M103.863 51.9668L109.799 49.1658C109.815 49.1586 109.829 49.1483 109.84 49.1355C109.852 49.1228 109.861 49.108 109.866 49.0918C109.872 49.0756 109.875 49.0584 109.874 49.0413C109.873 49.0241 109.869 49.0073 109.861 48.9918C109.854 48.976 109.844 48.9618 109.831 48.95C109.819 48.9382 109.804 48.9291 109.788 48.9233C109.771 48.9175 109.754 48.9151 109.737 48.9162C109.719 48.9173 109.703 48.922 109.687 48.9298L103.751 51.7298C103.736 51.7371 103.722 51.7474 103.71 51.7602C103.699 51.7729 103.69 51.7877 103.684 51.8039C103.678 51.8201 103.676 51.8373 103.677 51.8544C103.677 51.8716 103.682 51.8884 103.689 51.9038C103.697 51.927 103.712 51.9469 103.732 51.9604C103.753 51.9738 103.777 51.98 103.801 51.9778C103.822 51.9802 103.844 51.9764 103.863 51.9668Z" fill="#1F1F39"/>
<path d="M111.448 52.2406L106.007 54.8926L111.448 52.2406Z" fill="#1F1F39"/>
<path d="M106.068 55.0025L111.509 52.3525C111.525 52.3452 111.539 52.3349 111.55 52.3222C111.562 52.3095 111.571 52.2946 111.576 52.2784C111.582 52.2622 111.585 52.2451 111.584 52.2279C111.583 52.2108 111.579 52.194 111.571 52.1785C111.564 52.1629 111.554 52.149 111.541 52.1374C111.528 52.1259 111.513 52.117 111.497 52.1112C111.481 52.1054 111.464 52.1029 111.447 52.1038C111.429 52.1047 111.413 52.109 111.397 52.1165L105.957 54.7695C105.942 54.7768 105.928 54.7871 105.916 54.7998C105.905 54.8125 105.896 54.8274 105.89 54.8435C105.884 54.8597 105.882 54.8769 105.883 54.894C105.883 54.9112 105.888 54.928 105.895 54.9435C105.904 54.9656 105.92 54.9846 105.94 54.9978C105.96 55.011 105.983 55.0178 106.007 55.0175C106.029 55.0184 106.05 55.0132 106.068 55.0025Z" fill="#1F1F39"/>
<path d="M112.775 54.8934L107.731 57.2734L112.775 54.8934Z" fill="#1F1F39"/>
<path d="M107.791 57.3968L112.835 55.0048C112.851 54.9975 112.865 54.9872 112.876 54.9745C112.888 54.9618 112.897 54.9469 112.903 54.9307C112.908 54.9145 112.911 54.8974 112.91 54.8802C112.909 54.8631 112.905 54.8463 112.897 54.8308C112.89 54.8152 112.88 54.8013 112.867 54.7897C112.854 54.7782 112.839 54.7693 112.823 54.7635C112.807 54.7578 112.79 54.7553 112.773 54.7562C112.756 54.7571 112.739 54.7614 112.723 54.7688L107.679 57.1618C107.664 57.1691 107.65 57.1794 107.638 57.1921C107.627 57.2048 107.618 57.2197 107.612 57.2359C107.606 57.2521 107.604 57.2692 107.605 57.2864C107.606 57.3035 107.61 57.3203 107.617 57.3358C107.626 57.358 107.642 57.3769 107.662 57.3901C107.682 57.4033 107.705 57.4102 107.729 57.4098C107.751 57.4115 107.772 57.407 107.791 57.3968Z" fill="#1F1F39"/>
<path d="M91.6927 78.0918L94.3447 72.9118L91.6927 78.0918Z" fill="#1F1F39"/>
<path d="M91.8165 78.1428L94.4685 72.9748C94.4779 72.9597 94.4838 72.9427 94.4857 72.9251C94.4876 72.9074 94.4854 72.8896 94.4795 72.8728C94.4735 72.8561 94.4639 72.841 94.4512 72.8285C94.4386 72.816 94.4233 72.8065 94.4065 72.8008C94.3914 72.7914 94.3744 72.7856 94.3568 72.7837C94.3391 72.7818 94.3213 72.7839 94.3046 72.7898C94.2878 72.7958 94.2727 72.8054 94.2602 72.8181C94.2477 72.8307 94.2383 72.846 94.2325 72.8628L91.5855 78.0308C91.5761 78.0459 91.5703 78.0629 91.5684 78.0805C91.5665 78.0982 91.5686 78.116 91.5745 78.1328C91.5805 78.1495 91.5902 78.1646 91.6028 78.1771C91.6154 78.1896 91.6307 78.1991 91.6475 78.2048C91.6595 78.2168 91.6725 78.2168 91.6975 78.2168C91.7222 78.2164 91.7463 78.2093 91.7673 78.1963C91.7882 78.1833 91.8053 78.1648 91.8165 78.1428Z" fill="#1F1F39"/>
<path d="M27.6537 67.7583C19.1767 76.2483 17.8377 82.6683 15.9787 88.8653C14.1197 95.0623 13.5127 107.654 13.5127 107.654H39.0187L48.8467 57.5453C48.8467 57.5453 36.1307 59.2683 27.6537 67.7583Z" fill="#F9ACC0"/>
<path d="M85.6324 107.666L30.2814 107.666L30.9754 83.537L15.9914 83.537C15.9914 83.537 20.7584 68.687 31.9044 61.66C43.0504 54.633 55.3044 53.86 63.3354 55.96C78.0584 59.8 89.8584 68.823 89.8584 68.823L87.6024 91.095L81.6164 88.567L85.6324 107.666Z" fill="#F99A3D"/>
<path d="M41.4346 82.606L35.5976 64.573C35.5976 64.573 52.5646 67.882 63.5706 88.84C68.7016 98.594 68.7636 104.332 67.3626 107.666H30.2686L30.8636 86.919L41.4346 82.606Z" fill="#E88524"/>
<path d="M87.4531 91.0312L81.7771 88.6403L78.9631 79.5312L87.4531 91.0312Z" fill="#E88524"/>
<path d="M69.6592 65.7127C69.6541 65.9235 69.6038 66.1307 69.5119 66.3205C69.42 66.5102 69.2884 66.6781 69.1262 66.8127C68.8042 67.1127 68.4072 67.2957 68.0732 67.5687C67.8926 67.698 67.7463 67.8694 67.647 68.0681C67.5476 68.2668 67.4983 68.4867 67.5032 68.7087C67.5191 68.9446 67.599 69.1716 67.7343 69.3654C67.8696 69.5593 68.0553 69.7125 68.2712 69.8087C68.5062 69.9207 68.2962 70.2547 68.0712 70.1557C67.8725 70.0632 67.694 69.9324 67.5459 69.7708C67.3978 69.6091 67.283 69.4199 67.2082 69.2139C67.1333 69.0079 67.0998 68.7891 67.1096 68.5701C67.1194 68.3511 67.1722 68.1362 67.2652 67.9377C67.4871 67.5363 67.8177 67.2056 68.2192 66.9837C68.6051 66.785 68.9335 66.4906 69.1732 66.1287C69.4462 65.6287 69.0992 65.1617 68.7732 64.7907C68.6042 64.6097 68.8892 64.3247 69.0502 64.5227C69.374 64.8449 69.5873 65.2616 69.6592 65.7127Z" fill="white"/>
<path d="M70.7959 78.269C70.4369 78.542 70.0149 78.728 69.6809 79.037C69.5032 79.1944 69.3825 79.4061 69.3376 79.6393C69.2928 79.8724 69.3263 80.1139 69.4329 80.326C69.7602 80.8671 70.2448 81.2955 70.8219 81.554C70.8679 81.5805 70.9015 81.6242 70.9153 81.6755C70.9291 81.7268 70.922 81.7815 70.8954 81.8275C70.8689 81.8735 70.8252 81.9071 70.7739 81.9209C70.7226 81.9347 70.6679 81.9275 70.6219 81.901C70.0945 81.6456 69.6299 81.2772 69.2609 80.822C69.0953 80.609 68.9858 80.3579 68.9425 80.0916C68.8991 79.8253 68.9234 79.5525 69.0129 79.298C69.3969 78.398 70.5499 78.245 71.0329 77.427C71.1774 77.1864 71.2637 76.9154 71.2853 76.6356C71.3068 76.3558 71.2629 76.0748 71.1569 75.815C71.1342 75.7682 71.1291 75.7148 71.1427 75.6646C71.1563 75.6144 71.1877 75.5708 71.2309 75.542C71.2538 75.5267 71.2795 75.5163 71.3065 75.5114C71.3335 75.5065 71.3613 75.5072 71.388 75.5134C71.4148 75.5197 71.4399 75.5315 71.4619 75.5479C71.4839 75.5643 71.5023 75.5851 71.5159 75.609C71.7097 76.0692 71.7441 76.5809 71.6136 77.0629C71.4832 77.5448 71.1954 77.9694 70.7959 78.269Z" fill="white"/>
<path d="M85.0373 74.413C85.0956 74.0502 85.0789 73.6792 84.9883 73.323C84.7403 72.691 83.9353 72.654 83.3643 72.802C82.7443 72.976 82.0873 73.434 81.4313 73.161C81.1656 73.0217 80.9356 72.8228 80.7594 72.58C80.5832 72.3371 80.4654 72.0569 80.4153 71.761C80.339 71.4288 80.3292 71.0847 80.3865 70.7486C80.4438 70.4126 80.5671 70.0912 80.7493 69.803C80.8853 69.592 81.2323 69.791 81.0963 70.003C80.9385 70.2484 80.8308 70.5225 80.7793 70.8096C80.7278 71.0967 80.7336 71.3912 80.7963 71.676C80.9203 72.221 81.3043 72.903 81.9493 72.841C82.2854 72.7752 82.6113 72.6649 82.9183 72.513C83.2365 72.3854 83.5755 72.3176 83.9183 72.313C84.2209 72.3015 84.5199 72.3811 84.7767 72.5416C85.0335 72.7021 85.2361 72.936 85.3583 73.213C85.4641 73.5912 85.49 73.9873 85.4343 74.376C85.4003 74.8026 85.3297 75.2255 85.2233 75.64C85.2052 75.6852 85.1712 75.7222 85.1278 75.7442C85.0843 75.7661 85.0344 75.7714 84.9873 75.7592C84.9402 75.7469 84.8991 75.7179 84.8719 75.6775C84.8447 75.6372 84.8331 75.5883 84.8393 75.54C84.9363 75.1705 85.0025 74.7935 85.0373 74.413Z" fill="white"/>
<path d="M77.8871 95.1727C77.7509 95.1444 77.6097 95.1512 77.4768 95.1922C77.3439 95.2333 77.2236 95.3075 77.1271 95.4077C76.8791 95.6077 76.6561 95.8287 76.4081 96.0277C76.1509 96.2281 75.8773 96.4064 75.5901 96.5607C75.0243 96.8736 74.3802 97.0167 73.7351 96.9727C73.1628 96.9087 72.6301 96.649 72.2271 96.2377C72.0014 96.0169 71.8319 95.7452 71.7327 95.4454C71.6335 95.1457 71.6076 94.8265 71.6571 94.5147C71.7071 94.2667 72.0911 94.3657 72.0411 94.6267C72.0069 94.8969 72.042 95.1715 72.1431 95.4244C72.2442 95.6774 72.408 95.9005 72.6191 96.0727C72.8401 96.2692 73.1 96.4171 73.3818 96.5068C73.6636 96.5966 73.9611 96.6262 74.2551 96.5937C74.8989 96.5095 75.5097 96.259 76.0271 95.8667C76.5271 95.5077 76.9441 94.9127 77.5641 94.7887C77.7151 94.7585 77.8713 94.7664 78.0185 94.8118C78.1657 94.8572 78.2993 94.9386 78.4071 95.0487C78.5164 95.1486 78.5891 95.2822 78.6138 95.4283C78.6384 95.5743 78.6135 95.7244 78.5431 95.8547C78.5139 95.9017 78.4677 95.9356 78.4141 95.9493C78.3605 95.9629 78.3037 95.9553 78.2556 95.9281C78.2075 95.9008 78.1718 95.8559 78.1561 95.8029C78.1403 95.7499 78.1457 95.6928 78.1711 95.6437C78.2831 95.4447 78.0601 95.2467 77.8871 95.1727Z" fill="white"/>
<path d="M63.7576 81.8617C63.8068 82.1432 63.7874 82.4324 63.7011 82.7048C63.6148 82.9773 63.464 83.2249 63.2616 83.4267C62.8616 83.8357 62.3446 84.0837 61.9106 84.4557C61.5266 84.7907 61.0556 85.3557 61.3036 85.8937C61.5266 86.4017 62.2336 86.4887 62.7166 86.4267C62.7675 86.4148 62.8209 86.4222 62.8666 86.4472C62.9124 86.4723 62.9473 86.5134 62.9646 86.5627C62.9896 86.6497 62.9276 86.7977 62.8286 86.8107C62.5647 86.863 62.2929 86.8626 62.0291 86.8094C61.7653 86.7562 61.5147 86.6512 61.2916 86.5007C61.0746 86.3221 60.9262 86.0739 60.8715 85.7983C60.8168 85.5226 60.8592 85.2365 60.9916 84.9887C61.2926 84.4482 61.7406 84.004 62.2836 83.7077C62.5426 83.5771 62.7726 83.3956 62.9599 83.1742C63.1472 82.9527 63.2879 82.6957 63.3736 82.4187C63.398 82.0738 63.3449 81.7279 63.2182 81.4062C63.0916 81.0846 62.8946 80.7953 62.6416 80.5597C62.4676 80.3857 62.7416 80.1007 62.9146 80.2867C63.3437 80.7178 63.6368 81.2655 63.7576 81.8617Z" fill="white"/>
<path d="M66.8193 103.019C66.6703 103.626 66.1623 104.11 66.0633 104.742C66.024 105.011 66.0627 105.286 66.1746 105.534C66.2866 105.782 66.4673 105.993 66.6953 106.142C66.9684 106.308 67.2887 106.38 67.6067 106.347C67.9247 106.313 68.2229 106.176 68.4553 105.956C68.6413 105.782 68.9263 106.056 68.7403 106.241C68.5216 106.448 68.2569 106.599 67.9682 106.684C67.6794 106.768 67.3747 106.782 67.0793 106.726C66.788 106.663 66.5172 106.528 66.292 106.332C66.0667 106.137 65.8942 105.888 65.7903 105.609C65.6858 105.32 65.6504 105.01 65.6868 104.704C65.7233 104.399 65.8306 104.106 66.0003 103.849C66.1792 103.574 66.3249 103.279 66.4343 102.969C66.5065 102.708 66.4978 102.432 66.4093 102.176C66.3148 101.888 66.1373 101.635 65.8992 101.448C65.6611 101.262 65.373 101.149 65.0713 101.126C64.8113 101.114 64.8113 100.717 65.0593 100.726C65.3325 100.743 65.5989 100.819 65.8405 100.948C66.0821 101.077 66.2934 101.256 66.4601 101.473C66.6268 101.69 66.7451 101.94 66.8071 102.207C66.869 102.474 66.8732 102.751 66.8193 103.019Z" fill="white"/>
<path d="M45.1043 61.8587C45.0192 62.4259 44.7852 62.9604 44.4263 63.4077C44.2455 63.6339 44.0511 63.849 43.8443 64.0517C43.6491 64.2277 43.5001 64.4488 43.4103 64.6957C43.3363 65.0057 43.5963 65.1667 43.8563 65.2657C44.1965 65.3985 44.562 65.4538 44.9263 65.4277C45.1863 65.4157 45.1863 65.8117 44.9263 65.8277C44.6001 65.8403 44.274 65.8025 43.9593 65.7157C43.6824 65.654 43.4261 65.5217 43.2153 65.3317C42.7943 64.8857 43.0913 64.3157 43.4263 63.9317C43.6123 63.7207 43.8263 63.5317 43.9963 63.3247C44.1918 63.1 44.3562 62.8501 44.4853 62.5817C44.7379 62.1004 44.8041 61.5428 44.6713 61.0157C44.6088 60.7524 44.48 60.5094 44.2971 60.3098C44.1142 60.1103 43.8833 59.9609 43.6263 59.8757C43.5982 59.8721 43.5711 59.8625 43.5469 59.8476C43.5228 59.8327 43.502 59.8128 43.4862 59.7893C43.4703 59.7658 43.4596 59.7391 43.4548 59.7111C43.45 59.6831 43.4512 59.6544 43.4584 59.627C43.4655 59.5995 43.4784 59.5739 43.4963 59.5518C43.5141 59.5297 43.5364 59.5116 43.5618 59.4988C43.5871 59.486 43.6149 59.4788 43.6433 59.4776C43.6717 59.4763 43.7 59.4812 43.7263 59.4917C44.1962 59.6634 44.5911 59.9941 44.8428 60.4264C45.0945 60.8587 45.187 61.3654 45.1043 61.8587Z" fill="white"/>
<path d="M57.4989 69.5424C56.8049 69.8154 56.5989 70.5424 56.3989 71.2034C56.3328 71.5755 56.1838 71.9281 55.9629 72.2348C55.742 72.5416 55.4549 72.7947 55.1229 72.9754C54.4132 73.2903 53.6088 73.3169 52.8799 73.0494C52.4732 72.876 52.1068 72.6202 51.8039 72.2982C51.501 71.9762 51.2681 71.5949 51.1199 71.1784C51.0329 70.9434 51.4199 70.8314 51.5039 71.0664C51.6356 71.4234 51.838 71.7501 52.099 72.0269C52.36 72.3037 52.6743 72.525 53.0229 72.6774C53.369 72.7994 53.7382 72.8417 54.1029 72.8014C54.4781 72.7862 54.844 72.6798 55.1689 72.4914C55.8129 72.0824 55.9369 71.2644 56.1599 70.5914C56.2465 70.2577 56.4124 69.9498 56.6434 69.6939C56.8744 69.438 57.1638 69.2416 57.4869 69.1214C57.8475 69.0013 58.2348 68.9864 58.6035 69.0785C58.9723 69.1706 59.3071 69.3658 59.5689 69.6414C59.7429 69.8274 59.4569 70.1124 59.2839 69.9264C59.0595 69.6902 58.7691 69.5272 58.4507 69.4587C58.1322 69.3902 57.8005 69.4194 57.4989 69.5424Z" fill="white"/>
<path d="M23.5524 69.2581C23.6959 69.4511 23.7956 69.673 23.8449 69.9083C23.8941 70.1436 23.8915 70.3869 23.8374 70.6211C23.7222 71.1175 23.6552 71.6239 23.6374 72.1331C23.6516 72.3538 23.7345 72.5645 23.8746 72.7357C24.0147 72.9068 24.2049 73.0297 24.4184 73.0871C24.6608 73.1432 24.9145 73.1233 25.1451 73.0301C25.3758 72.9368 25.5721 72.7749 25.7074 72.5661C25.8574 72.3561 26.1874 72.5551 26.0554 72.7651C25.9333 72.9606 25.7695 73.1266 25.5759 73.2516C25.3822 73.3765 25.1634 73.4572 24.9351 73.4879C24.7067 73.5187 24.4743 73.4987 24.2545 73.4294C24.0347 73.3602 23.8329 73.2433 23.6634 73.0871C23.501 72.9051 23.3802 72.6899 23.3095 72.4563C23.2389 72.2228 23.2201 71.9767 23.2544 71.7351C23.3711 71.2012 23.4457 70.6588 23.4774 70.1131C23.4524 69.6791 23.0934 69.0971 22.5774 69.2581C22.3294 69.3451 22.2184 68.9581 22.4654 68.8741C22.6643 68.8233 22.8737 68.8326 23.0673 68.901C23.2608 68.9694 23.4297 69.0937 23.5524 69.2581Z" fill="white"/>
<path d="M59.3832 59.0954C57.8766 59.7687 56.2591 60.1595 54.6112 60.2484C52.1928 60.569 49.7444 59.938 47.7822 58.4884C47.0526 57.8611 46.4617 57.0887 46.0472 56.2204C45.9352 55.9974 46.2822 55.7864 46.3942 56.0204C46.7457 56.7446 47.2193 57.4029 47.7942 57.9664C48.491 58.6148 49.3195 59.1053 50.2232 59.4044C51.4489 59.7875 52.7326 59.951 54.0152 59.8874C55.6174 59.8629 57.203 59.5583 58.7002 58.9874C60.3128 58.3298 61.739 57.2859 62.8532 55.9474C62.9892 55.7364 63.2742 56.0224 63.1132 56.2204C62.0986 57.4436 60.8244 58.4257 59.3832 59.0954Z" fill="white"/>
<path d="M87.5533 73.2106C87.3673 74.4995 87.1693 75.7756 86.9953 77.0646C86.8463 78.1556 86.7103 79.2456 86.5863 80.3486C86.4503 81.6006 86.3133 82.8396 86.2023 84.0916L85.7193 89.3336C85.6943 89.6066 85.6693 89.8666 85.6453 90.1396C85.6203 90.3876 85.2243 90.3996 85.2453 90.1396C85.4063 88.3056 85.5673 86.4716 85.7453 84.6496C85.8693 83.3496 85.9933 82.0496 86.1453 80.7496C86.2693 79.6496 86.4053 78.5436 86.5543 77.4496C86.7283 76.1856 86.9013 74.9335 87.0873 73.6695L87.8633 68.4636C87.9003 68.1916 87.9373 67.9305 87.9873 67.6586C87.9993 67.5466 88.1353 67.4966 88.2343 67.5216C88.2591 67.5274 88.2825 67.5383 88.303 67.5536C88.3235 67.5688 88.3407 67.588 88.3535 67.6101C88.3663 67.6322 88.3745 67.6566 88.3776 67.682C88.3806 67.7073 88.3785 67.7331 88.3713 67.7576C88.0983 69.5796 87.8253 71.4006 87.5533 73.2106Z" fill="white"/>
<path d="M80.5763 85.0727C80.3533 84.9607 80.5513 84.6137 80.7763 84.7257C82.4603 85.5927 84.1333 86.4607 85.8163 87.3277C86.0393 87.4517 85.8413 87.7867 85.6163 87.6747C83.9343 86.8037 82.2613 85.9397 80.5763 85.0727Z" fill="white"/>
<path d="M23.1799 80.9609H17.3669C17.3138 80.9609 17.2629 80.9399 17.2254 80.9024C17.1879 80.8649 17.1669 80.814 17.1669 80.7609C17.1669 80.7079 17.1879 80.657 17.2254 80.6195C17.2629 80.582 17.3138 80.5609 17.3669 80.5609H27.4309C27.4839 80.5609 27.5348 80.582 27.5723 80.6195C27.6098 80.657 27.6309 80.7079 27.6309 80.7609C27.6309 80.814 27.6098 80.8649 27.5723 80.9024C27.5348 80.9399 27.4839 80.9609 27.4309 80.9609H23.1799Z" fill="white"/>
<path d="M16.2995 99.8209L21.7405 97.3049C21.7564 97.298 21.7706 97.2879 21.7824 97.2752C21.7942 97.2625 21.8032 97.2476 21.809 97.2313C21.8148 97.215 21.8173 97.1977 21.8161 97.1804C21.815 97.1632 21.8104 97.1463 21.8025 97.1309C21.7956 97.1151 21.7854 97.1009 21.7728 97.0891C21.7601 97.0773 21.7452 97.0682 21.7289 97.0624C21.7126 97.0566 21.6953 97.0542 21.678 97.0553C21.6608 97.0564 21.6439 97.0611 21.6285 97.0689L16.1885 99.5859C16.1733 99.5929 16.1597 99.6029 16.1483 99.6152C16.137 99.6274 16.1282 99.6419 16.1224 99.6576C16.1166 99.6733 16.114 99.6899 16.1147 99.7067C16.1155 99.7234 16.1195 99.7398 16.1265 99.7549C16.1382 99.7777 16.156 99.7967 16.1779 99.8098C16.1998 99.8228 16.225 99.8295 16.2505 99.8289C16.2755 99.8339 16.2875 99.8339 16.2995 99.8209Z" fill="#1F1F39"/>
<path d="M47.6086 107.616C46.5896 107.615 45.5712 107.561 44.5576 107.455C41.0933 106.973 37.73 105.933 34.5986 104.374C30.6956 102.599 27.2889 99.8913 24.6786 96.4895C22.3217 93.3826 20.95 89.6406 20.7406 85.7465C20.6478 83.7685 21.0499 81.7987 21.9106 80.0155C23.1106 77.7705 25.1906 77.1155 27.0286 76.5345C28.1212 76.3212 29.1338 75.8104 29.9546 75.0585C30.6476 74.2265 30.2666 73.0455 29.8246 71.6785C29.2746 69.9785 28.6506 68.0445 29.8556 66.1605C30.6836 64.8525 32.5306 64.1895 35.3496 64.1895C37.0066 64.1895 39.4856 65.1165 42.5196 66.8695C45.085 68.3746 47.5324 70.0725 49.8406 71.9485C53.5996 75.0085 61.9406 85.1485 62.2586 95.3485C62.3778 96.8497 62.1847 98.3594 61.6916 99.7824C61.1985 101.205 60.4161 102.511 59.3936 103.616C57.9509 105.047 56.1764 106.097 54.2286 106.674C52.0838 107.328 49.8507 107.646 47.6086 107.616ZM35.5966 75.3815C35.0132 75.3815 34.4428 75.5545 33.9577 75.8786C33.4726 76.2028 33.0945 76.6635 32.8712 77.2025C32.6479 77.7416 32.5895 78.3347 32.7033 78.907C32.8171 79.4792 33.0981 80.0049 33.5107 80.4174C33.9232 80.83 34.4489 81.1109 35.0211 81.2248C35.5934 81.3386 36.1865 81.2802 36.7256 81.0569C37.2646 80.8336 37.7253 80.4555 38.0495 79.9704C38.3736 79.4853 38.5466 78.9149 38.5466 78.3315C38.5458 77.5493 38.2348 76.7994 37.6817 76.2464C37.1287 75.6933 36.3788 75.3822 35.5966 75.3815Z" fill="white"/>
<path d="M51.7118 82.2079C51.1908 80.5469 49.4318 79.9279 48.5018 81.2779C48.1649 81.7844 48.0373 82.4017 48.1458 83.0002C48.2544 83.5988 48.5905 84.132 49.0838 84.4879C49.5528 84.7958 50.1105 84.9396 50.6698 84.8969C51.0974 84.6088 51.4264 84.1966 51.6127 83.7159C51.799 83.2352 51.8336 82.7089 51.7118 82.2079Z" fill="#F99A3D"/>
<path d="M53.1513 90.7974C52.0113 90.6974 51.7013 90.7974 51.3913 91.6274C51.0813 92.4574 52.1063 93.2884 53.3583 93.3874C53.9118 93.4304 54.463 93.278 54.9158 92.9566C55.3685 92.6352 55.6943 92.1652 55.8363 91.6284C56.1513 90.5864 55.8363 89.7694 54.8083 89.9674C54.6356 90.2452 54.3894 90.4698 54.0969 90.6163C53.8045 90.7628 53.4772 90.8255 53.1513 90.7974Z" fill="#3C82F5"/>
<path d="M46.1085 97.4168C43.9395 97.8258 40.5195 96.8958 40.3085 95.4458C40.0975 93.9958 40.9285 94.0948 42.0685 93.8968C43.2787 93.6722 44.3953 93.0943 45.2775 92.2358C45.5344 91.9855 45.8524 91.8068 46.1999 91.7174C46.5473 91.628 46.9121 91.6311 47.2579 91.7263C47.6038 91.8215 47.9188 92.0056 48.1715 92.2603C48.4242 92.5149 48.6059 92.8312 48.6985 93.1778C48.8804 93.6255 48.9548 94.1095 48.9156 94.5911C48.8764 95.0727 48.7248 95.5384 48.4729 95.9507C48.2209 96.363 47.8758 96.7105 47.4651 96.9651C47.0545 97.2198 46.5898 97.3745 46.1085 97.4168Z" fill="#BEE3C5"/>
<path d="M33.5904 90.2777C30.3804 89.7567 30.4794 88.3067 31.1114 87.8977C31.7434 87.4887 33.3914 87.8977 33.8004 87.3767C34.2094 86.8557 36.7884 85.6177 37.4204 87.7997C38.0524 89.9817 36.8004 90.7987 33.5904 90.2777Z" fill="#DA5742"/>
<path d="M46.8025 21.8637C42.8615 23.5367 41.8325 26.0637 40.3825 30.6507C38.9325 35.2377 39.2295 37.7397 37.3955 41.2967C36.4823 43.2816 34.8663 44.8579 32.8595 45.7217C32.8595 45.7217 36.3915 50.6417 53.7925 49.8737C70.8335 49.1297 76.5225 38.9797 76.5225 38.9797C76.5225 38.9797 70.6355 37.8147 68.6895 33.7867C66.7435 29.7587 64.4015 22.5577 59.4685 21.5417C54.5355 20.5257 53.1475 23.4997 53.1475 23.4997C52.4274 22.5539 51.4098 21.8781 50.2587 21.5813C49.1076 21.2845 47.8901 21.384 46.8025 21.8637Z" fill="#1F1F39"/>
<path d="M64.4262 43.9107C63.996 45.1239 63.2811 46.2163 62.3415 47.0962C61.4019 47.9761 60.2651 48.6179 59.0262 48.9677C59.0262 48.9677 59.2262 51.7437 59.6462 54.0987L60.0672 56.4537C59.4394 57.3285 58.6022 58.0319 57.6323 58.4996C56.6624 58.9672 55.5907 59.1842 54.5152 59.1307C50.6362 59.0687 48.8512 57.5447 48.8512 57.5447C48.8512 57.5447 48.8632 54.3347 48.5662 50.7657C48.2692 47.1967 47.7982 44.4447 47.7982 44.4447C47.7982 44.4447 42.0232 44.2097 41.4902 39.7347C41.0192 35.8807 44.8982 35.8557 45.8772 36.2647C46.8562 36.6737 46.8772 36.8097 46.8772 36.8097C47.1346 37.7313 47.466 38.6305 47.8682 39.4987C48.0661 39.9875 48.3952 40.4122 48.8192 40.7257C48.3519 39.2859 48.0827 37.7892 48.0192 36.2767C48.0167 35.2643 48.1671 34.2572 48.4652 33.2897L49.5412 35.5577L56.3582 34.4667L56.5062 31.2447L57.9692 34.5447L64.5252 33.6147C64.5252 33.6147 65.9252 39.7217 64.4262 43.9107Z" fill="#F9D2DD"/>
<path d="M47.7947 44.4451C47.395 44.4165 46.9976 44.3627 46.6047 44.2841C46.5123 43.6099 46.3787 42.942 46.2047 42.2841C45.8028 41.0146 45.3153 39.7737 44.7457 38.5701C45.7099 39.1362 46.4923 39.9661 47.0007 40.9621C47.4131 42.0713 47.68 43.2293 47.7947 44.4071C47.8559 44.6978 47.9013 44.9915 47.9307 45.2871C47.8567 44.7541 47.7947 44.4451 47.7947 44.4451Z" fill="#F9ACC0"/>
<path d="M47.5707 42.2018C47.5874 42.1959 47.6028 42.1866 47.6158 42.1744C47.6288 42.1623 47.6391 42.1475 47.646 42.1311C47.653 42.1148 47.6565 42.0971 47.6562 42.0793C47.656 42.0615 47.6521 42.044 47.6447 42.0278C47.3167 41.1078 46.8441 40.2459 46.2447 39.4748C45.8703 39.0196 45.401 38.6517 44.8697 38.3968C44.8367 38.3847 44.8003 38.3856 44.768 38.3993C44.7357 38.4131 44.7098 38.4386 44.6957 38.4708C44.6835 38.5038 44.6844 38.5401 44.6982 38.5725C44.7119 38.6048 44.7375 38.6307 44.7697 38.6448C45.2601 38.886 45.695 39.2265 46.0467 39.6448C46.6214 40.3916 47.0731 41.2255 47.3847 42.1148C47.3941 42.1436 47.4122 42.1687 47.4366 42.1866C47.461 42.2046 47.4904 42.2144 47.5207 42.2148C47.5382 42.2152 47.5555 42.2107 47.5707 42.2018Z" fill="#1F1F39"/>
<path d="M62.4913 35.8683C62.2791 35.721 62.0192 35.6589 61.7633 35.6943C61.5083 35.7133 61.2637 35.8034 61.0573 35.9543C60.9562 36.0305 60.8752 36.1301 60.8212 36.2446C60.7672 36.359 60.7419 36.4849 60.7473 36.6113C60.8268 36.4076 60.9736 36.2372 61.1633 36.1283C61.3531 36.0332 61.5589 35.9742 61.7703 35.9543C61.9777 35.9321 62.1874 35.962 62.3803 36.0413C62.5801 36.1415 62.7476 36.2961 62.8633 36.4873C62.8479 36.3639 62.8069 36.2451 62.7428 36.1384C62.6787 36.0318 62.5931 35.9398 62.4913 35.8683Z" fill="#1F1F39"/>
<path d="M54.3122 36.5261C54.0901 36.4038 53.8318 36.3641 53.5832 36.4141C53.4564 36.431 53.3344 36.4732 53.2242 36.5381C53.113 36.6001 53.016 36.6845 52.9392 36.7861C52.7821 36.974 52.6946 37.2102 52.6912 37.4551C52.7894 37.2571 52.9253 37.0801 53.0912 36.9341C53.1628 36.865 53.247 36.8103 53.3392 36.7731C53.3892 36.7611 53.4262 36.7361 53.4752 36.7231L53.6242 36.6861C53.8247 36.6502 54.0308 36.6632 54.2252 36.7241C54.4388 36.7815 54.6321 36.8976 54.7832 37.0591C54.7017 36.8268 54.5327 36.6355 54.3122 36.5261Z" fill="#1F1F39"/>
<path d="M58.6009 38.6057C58.7325 38.8918 58.8244 39.1946 58.8739 39.5057C58.8843 39.5812 58.8884 39.6575 58.8859 39.7337C58.8797 39.8052 58.8663 39.8759 58.8459 39.9447C58.8137 40.0758 58.7343 40.1904 58.6229 40.2667C58.4951 40.3446 58.3524 40.3947 58.2039 40.4137C58.0444 40.4405 57.8823 40.4489 57.7209 40.4387C57.8794 40.5044 58.0493 40.5384 58.2209 40.5387C58.401 40.5434 58.5797 40.505 58.7419 40.4267C58.9122 40.3345 59.0394 40.1789 59.0959 39.9937C59.1244 39.9056 59.1413 39.8141 59.1459 39.7217C59.1481 39.6305 59.1441 39.5393 59.1339 39.4487C59.0764 39.1124 58.9588 38.7893 58.7869 38.4947C58.6262 38.2109 58.4303 37.9485 58.2039 37.7137C58.3399 38.0137 58.4769 38.3087 58.6009 38.6057Z" fill="#1F1F39"/>
<path d="M62.4725 38.882C62.5266 38.6309 62.4802 38.3686 62.3432 38.1513C62.2062 37.9341 61.9895 37.7791 61.7396 37.7197C61.4826 37.7176 61.235 37.8163 61.05 37.9947C60.865 38.1731 60.7573 38.417 60.75 38.6739C60.6959 38.9251 60.7424 39.1876 60.8796 39.4049C61.0168 39.6222 61.2337 39.7771 61.4838 39.8363C61.7407 39.8381 61.988 39.7393 62.1729 39.5609C62.3577 39.3825 62.4652 39.1388 62.4725 38.882Z" fill="#1F1F39"/>
<path d="M54.6541 39.4191C54.7082 39.168 54.6618 38.9057 54.5248 38.6884C54.3878 38.4712 54.1712 38.3162 53.9213 38.2568C53.6643 38.2547 53.4167 38.3535 53.2316 38.5319C53.0466 38.7102 52.9389 38.9541 52.9316 39.211C52.8775 39.4622 52.924 39.7247 53.0612 39.942C53.1984 40.1593 53.4154 40.3142 53.6655 40.3734C53.9223 40.3752 54.1697 40.2764 54.3545 40.098C54.5393 39.9196 54.6469 39.6759 54.6541 39.4191Z" fill="#1F1F39"/>
<path d="M59.0472 49.1047C59.0472 49.1047 59.2172 51.5837 59.6172 53.8757C58.4378 53.9826 57.2529 53.7413 56.2092 53.1817C52.5032 51.6047 52.1442 49.4047 52.1442 49.4047C54.4034 50.16 56.8621 50.0531 59.0472 49.1047Z" fill="#F9ACC0"/>
<path d="M57.2122 42.56C56.9898 42.5285 56.773 42.4659 56.5682 42.374C56.3596 42.2783 56.1604 42.1635 55.9732 42.031C55.7732 41.882 55.5642 41.721 55.3292 41.531C55.3288 41.8361 55.4208 42.1342 55.5932 42.386C55.7695 42.6503 56.0195 42.8572 56.3122 42.981C56.4636 43.0411 56.6218 43.0827 56.7832 43.105C56.9451 43.1235 57.109 43.111 57.2662 43.068C57.4164 43.0352 57.5584 42.972 57.6834 42.8825C57.8084 42.7929 57.9138 42.6787 57.9932 42.547C57.7342 42.5819 57.4721 42.5863 57.2122 42.56Z" fill="#DA5742"/>
<path d="M56.0728 49.8614C57.1484 49.7682 58.2091 49.5476 59.2328 49.2044C59.2496 49.1985 59.2649 49.1892 59.2779 49.177C59.2909 49.1649 59.3012 49.1501 59.3081 49.1337C59.3151 49.1174 59.3186 49.0997 59.3183 49.0819C59.3181 49.0641 59.3142 49.0466 59.3068 49.0304C59.3009 49.0136 59.2915 48.9983 59.2794 48.9853C59.2672 48.9723 59.2525 48.962 59.2361 48.955C59.2197 48.9481 59.2021 48.9446 59.1843 48.9448C59.1665 48.9451 59.1489 48.949 59.1328 48.9564C58.1244 49.2751 57.0854 49.4869 56.0328 49.5884C54.7843 49.7337 53.5193 49.62 52.3168 49.2544C52.2838 49.2423 52.2474 49.2432 52.2151 49.2569C52.1828 49.2707 52.1569 49.2963 52.1428 49.3284C52.1306 49.3614 52.1315 49.3978 52.1453 49.4301C52.159 49.4624 52.1846 49.4883 52.2168 49.5024C53.1098 49.7903 54.0435 49.9325 54.9818 49.9234C55.3288 49.9234 55.6888 49.8984 56.0728 49.8614Z" fill="#1F1F39"/>
<path d="M53.9672 42.9789C54.0722 42.1092 53.0066 41.2654 51.5859 41.094C50.1652 40.9226 48.9295 41.4886 48.8245 42.3583C48.7196 43.228 49.786 44.0728 51.2057 44.2441C52.6254 44.4155 53.8621 43.8496 53.9672 42.9789Z" fill="#F9ACC0"/>
<path d="M62.9397 39.8226C63.684 39.706 64.4458 39.8505 65.0957 40.2316C65.0613 40.985 64.97 41.7348 64.8227 42.4746C64.3592 42.7465 63.8444 42.9195 63.3107 42.9826C61.8957 43.1436 60.6587 42.5736 60.5597 41.7066C60.4607 40.8396 61.5137 39.9836 62.9397 39.8226Z" fill="#F9ACC0"/>
<path d="M31.8914 94.3313C33.7514 94.4653 33.8744 96.6493 33.8744 96.6493C34.6766 96.4221 35.536 96.5202 36.2664 96.9223C37.3324 97.6043 37.0594 99.6493 37.0594 99.6493C37.4963 99.7568 37.8975 99.9768 38.2229 100.288C38.5484 100.598 38.7868 100.989 38.9144 101.42C39.5714 103.056 36.8074 106.253 31.4904 107.456C26.1734 108.659 22.4724 106.477 21.0144 103.465C19.5564 100.453 20.0844 98.4083 19.0314 95.5333C18.4376 94.1519 17.583 92.898 16.5144 91.8403C16.3327 91.5462 16.2354 91.2078 16.2329 90.8621C16.2305 90.5164 16.3231 90.1767 16.5006 89.8801C16.678 89.5834 16.9336 89.3412 17.2394 89.1799C17.5451 89.0186 17.8893 88.9443 18.2344 88.9653C20.4904 88.9653 22.8694 90.7373 24.3344 92.5223C25.2097 93.5983 25.801 94.8766 26.0544 96.2403C26.0544 96.2403 30.0324 94.1953 31.8914 94.3313Z" fill="#F9D2DD"/>
<path d="M31.5565 102.511L37.1215 99.9082C37.137 99.9009 37.151 99.8906 37.1625 99.8779C37.1741 99.8652 37.183 99.8503 37.1887 99.8341C37.1945 99.818 37.197 99.8008 37.1961 99.7836C37.1952 99.7665 37.1909 99.7497 37.1835 99.7342C37.1762 99.7187 37.1659 99.7047 37.1532 99.6932C37.1405 99.6816 37.1256 99.6727 37.1094 99.6669C37.0932 99.6612 37.0761 99.6587 37.0589 99.6596C37.0418 99.6605 37.025 99.6648 37.0095 99.6722L31.4445 102.272C31.4289 102.28 31.415 102.29 31.4034 102.303C31.3919 102.315 31.383 102.33 31.3772 102.346C31.3714 102.362 31.3689 102.38 31.3698 102.397C31.3707 102.414 31.375 102.431 31.3825 102.446C31.3921 102.469 31.4082 102.488 31.4289 102.502C31.4495 102.516 31.4737 102.523 31.4985 102.523C31.5185 102.524 31.5386 102.52 31.5565 102.511Z" fill="#1F1F39"/>
<path d="M28.2362 99.2256L33.8002 96.6226C33.8157 96.6153 33.8297 96.605 33.8412 96.5923C33.8528 96.5796 33.8617 96.5647 33.8675 96.5485C33.8732 96.5323 33.8757 96.5152 33.8748 96.498C33.8739 96.4809 33.8696 96.4641 33.8622 96.4486C33.8549 96.433 33.8446 96.4191 33.8319 96.4075C33.8192 96.396 33.8043 96.3871 33.7881 96.3813C33.7719 96.3755 33.7548 96.373 33.7376 96.3739C33.7205 96.3748 33.7037 96.3791 33.6882 96.3866L28.1232 98.9866C28.1076 98.9939 28.0937 99.0042 28.0821 99.0169C28.0706 99.0296 28.0617 99.0445 28.0559 99.0606C28.0501 99.0768 28.0476 99.094 28.0485 99.1111C28.0494 99.1283 28.0537 99.1451 28.0612 99.1606C28.0683 99.185 28.0839 99.2062 28.1051 99.2203C28.1263 99.2344 28.1519 99.2405 28.1772 99.2376C28.1976 99.239 28.218 99.2349 28.2362 99.2256Z" fill="#1F1F39"/>
<path d="M24.9885 91.1836C25.5549 92.7411 25.9982 94.3407 26.3145 95.9676L22.5965 98.4336L20.7375 89.6466C20.7625 89.6466 20.7745 89.6466 20.7875 89.6586L24.9885 91.1836Z" fill="#F9ACC0"/>
<path d="M78.6912 78.6264L81.6162 88.5664L78.6912 78.6264Z" fill="#1F1F39"/>
<path d="M81.6538 88.7089C81.6703 88.7044 81.6858 88.6967 81.6992 88.686C81.7126 88.6754 81.7238 88.6622 81.7319 88.6471C81.7401 88.632 81.745 88.6155 81.7466 88.5984C81.7481 88.5813 81.7461 88.5642 81.7408 88.5479L78.8278 78.6029C78.8233 78.5863 78.8156 78.5709 78.8049 78.5574C78.7943 78.544 78.7811 78.5329 78.766 78.5247C78.7509 78.5166 78.7344 78.5116 78.7173 78.5101C78.7002 78.5086 78.6831 78.5105 78.6668 78.5159C78.6502 78.5203 78.6348 78.5281 78.6213 78.5387C78.6079 78.5493 78.5968 78.5626 78.5886 78.5777C78.5805 78.5927 78.5755 78.6093 78.574 78.6264C78.5725 78.6434 78.5744 78.6606 78.5798 78.6769L81.4918 88.6169C81.4988 88.6441 81.515 88.668 81.5375 88.6848C81.5601 88.7015 81.5877 88.71 81.6158 88.7089H81.6538Z" fill="#1F1F39"/>
<path d="M83.2434 60.619C83.2361 60.5938 83.2337 60.5674 83.2366 60.5413C83.2394 60.5152 83.2474 60.4899 83.26 60.4668C83.2727 60.4438 83.2897 60.4235 83.3102 60.407C83.3307 60.3906 83.3542 60.3784 83.3794 60.371C83.4298 60.3603 83.4823 60.3683 83.5272 60.3935C83.5721 60.4187 83.6063 60.4594 83.6234 60.508C83.7234 60.793 83.8344 61.078 83.9334 61.351C83.9408 61.3762 83.9431 61.4026 83.9402 61.4287C83.9374 61.4548 83.9294 61.4801 83.9168 61.5032C83.9041 61.5262 83.8871 61.5465 83.8666 61.563C83.8461 61.5794 83.8226 61.5916 83.7974 61.599C83.7724 61.6076 83.7459 61.6109 83.7196 61.6087C83.6933 61.6066 83.6677 61.5991 83.6444 61.5866C83.6211 61.5741 83.6007 61.5569 83.5843 61.5362C83.568 61.5154 83.5561 61.4916 83.5494 61.466C83.4504 61.177 83.3434 60.892 83.2434 60.619Z" fill="white"/>
<path d="M47.6086 107.988C46.5896 107.986 45.5712 107.932 44.5576 107.827C41.0933 107.345 37.73 106.304 34.5986 104.746C30.6956 102.97 27.2889 100.262 24.6786 96.8605C22.3217 93.7537 20.95 90.0117 20.7406 86.1175C20.6478 84.1396 21.0499 82.1698 21.9106 80.3865C23.1106 78.1415 25.1906 77.4865 27.0286 76.9055C28.1212 76.6923 29.1338 76.1815 29.9546 75.4295C30.6476 74.5975 30.2666 73.4165 29.8246 72.0495C29.2746 70.3495 28.6506 68.4155 29.8556 66.5315C30.6836 65.2235 32.5306 64.5605 35.3496 64.5605C37.0066 64.5605 39.4856 65.4875 42.5196 67.2405C45.085 68.7457 47.5324 70.4436 49.8406 72.3195C53.5996 75.3795 61.9406 85.5195 62.2586 95.7195C62.3778 97.2208 62.1847 98.7305 61.6916 100.153C61.1985 101.576 60.4161 102.882 59.3936 103.988C57.9509 105.418 56.1764 106.468 54.2286 107.046C52.0838 107.699 49.8507 108.017 47.6086 107.988ZM35.5966 75.7525C35.0132 75.7525 34.4428 75.9256 33.9577 76.2497C33.4726 76.5739 33.0945 77.0346 32.8712 77.5736C32.6479 78.1127 32.5895 78.7058 32.7033 79.2781C32.8171 79.8503 33.0981 80.3759 33.5107 80.7885C33.9232 81.2011 34.4489 81.482 35.0211 81.5959C35.5934 81.7097 36.1865 81.6513 36.7256 81.428C37.2646 81.2047 37.7253 80.8266 38.0495 80.3415C38.3736 79.8564 38.5466 79.286 38.5466 78.7025C38.5458 77.9204 38.2348 77.1705 37.6817 76.6175C37.1287 76.0644 36.3788 75.7533 35.5966 75.7525Z" fill="white"/>
<path d="M47.6086 107.988C46.5896 107.986 45.5712 107.932 44.5576 107.827C41.0933 107.345 37.73 106.304 34.5986 104.746C30.6956 102.97 27.2889 100.262 24.6786 96.8605C22.3217 93.7537 20.95 90.0117 20.7406 86.1175C20.6478 84.1396 21.0499 82.1698 21.9106 80.3865C23.1106 78.1415 25.1906 77.4865 27.0286 76.9055C28.1212 76.6923 29.1338 76.1815 29.9546 75.4295C30.6476 74.5975 30.2666 73.4165 29.8246 72.0495C29.2746 70.3495 28.6506 68.4155 29.8556 66.5315C30.6836 65.2235 32.5306 64.5605 35.3496 64.5605C37.0066 64.5605 39.4856 65.4875 42.5196 67.2405C45.085 68.7457 47.5324 70.4436 49.8406 72.3195C53.5996 75.3795 61.9406 85.5195 62.2586 95.7195C62.3778 97.2208 62.1847 98.7305 61.6916 100.153C61.1985 101.576 60.4161 102.882 59.3936 103.988C57.9509 105.418 56.1764 106.468 54.2286 107.046C52.0838 107.699 49.8507 108.017 47.6086 107.988ZM35.5966 75.7525C35.0132 75.7525 34.4428 75.9256 33.9577 76.2497C33.4726 76.5739 33.0945 77.0346 32.8712 77.5736C32.6479 78.1127 32.5895 78.7058 32.7033 79.2781C32.8171 79.8503 33.0981 80.3759 33.5107 80.7885C33.9232 81.2011 34.4489 81.482 35.0211 81.5959C35.5934 81.7097 36.1865 81.6513 36.7256 81.428C37.2646 81.2047 37.7253 80.8266 38.0495 80.3415C38.3736 79.8564 38.5466 79.286 38.5466 78.7025C38.5458 77.9204 38.2348 77.1705 37.6817 76.6175C37.1287 76.0644 36.3788 75.7533 35.5966 75.7525Z" fill="white"/>
<path d="M51.7118 82.581C51.1908 80.92 49.4318 80.301 48.5018 81.651C48.1649 82.1574 48.0373 82.7748 48.1458 83.3733C48.2544 83.9718 48.5905 84.505 49.0838 84.861C49.5528 85.1688 50.1105 85.3127 50.6698 85.27C51.0974 84.9818 51.4264 84.5697 51.6127 84.089C51.799 83.6082 51.8336 83.082 51.7118 82.581Z" fill="white"/>
<path d="M53.1503 91.1704C52.0103 91.0704 51.7003 91.1704 51.3903 92.0004C51.0803 92.8304 52.1053 93.6614 53.3573 93.7604C53.9109 93.8035 54.462 93.651 54.9148 93.3296C55.3676 93.0082 55.6933 92.5382 55.8353 92.0014C56.1503 90.9594 55.8353 90.1424 54.8073 90.3404C54.6346 90.6182 54.3884 90.8428 54.0959 90.9893C53.8035 91.1358 53.4762 91.1985 53.1503 91.1704Z" fill="white"/>
<path d="M46.1075 97.7879C43.9385 98.1969 40.5185 97.2669 40.3075 95.8169C40.0965 94.3669 40.9275 94.4659 42.0675 94.2679C43.2777 94.0433 44.3943 93.4653 45.2765 92.6069C45.5334 92.3566 45.8514 92.1779 46.1989 92.0885C46.5463 91.9991 46.9111 92.0022 47.257 92.0974C47.6028 92.1926 47.9178 92.3767 48.1705 92.6314C48.4232 92.886 48.6049 93.2023 48.6975 93.5489C48.8794 93.9965 48.9538 94.4806 48.9146 94.9622C48.8755 95.4438 48.7238 95.9095 48.4719 96.3218C48.22 96.7341 47.8748 97.0816 47.4641 97.3362C47.0535 97.5909 46.5888 97.7456 46.1075 97.7879Z" fill="white"/>
<path d="M33.5895 90.6488C30.3795 90.1278 30.4785 88.6778 31.1105 88.2688C31.7425 87.8598 33.3905 88.2688 33.7995 87.7478C34.2085 87.2268 36.7875 85.9888 37.4195 88.1708C38.0515 90.3528 36.7995 91.1698 33.5895 90.6488Z" fill="white"/>
<path d="M159.787 74.9473V98.8623H100.651C99.081 98.8623 97.5261 98.553 96.0754 97.952C94.6246 97.351 93.3064 96.4702 92.1961 95.3598C91.0858 94.2494 90.2051 92.9311 89.6042 91.4803C89.0034 90.0295 88.6942 88.4746 88.6943 86.9043C88.6943 83.7331 89.9541 80.6918 92.1965 78.4494C94.4388 76.207 97.4801 74.9473 100.651 74.9473H159.787Z" fill="#F8F2FF"/>
<path d="M99.6978 89.0195V85.8415H101.462C102.708 85.8415 103.268 86.4295 103.268 87.4375C103.268 88.4175 102.708 89.0195 101.462 89.0195H99.6978ZM104.906 87.4375C104.906 85.8555 103.772 84.5395 101.462 84.5395H98.1018V94.2695H99.6978V90.3215H101.462C103.996 90.3215 104.906 88.8235 104.906 87.4375ZM105.896 90.3775C105.896 92.7575 107.506 94.3955 109.508 94.3955C110.796 94.3955 111.72 93.7795 112.21 93.1215V94.2695H113.82V86.5555H112.21V87.6755C111.734 87.0455 110.838 86.4295 109.536 86.4295C107.506 86.4295 105.896 87.9975 105.896 90.3775ZM112.21 90.4055C112.21 92.0715 111.076 93.0095 109.872 93.0095C108.682 93.0095 107.534 92.0435 107.534 90.3775C107.534 88.7115 108.682 87.8155 109.872 87.8155C111.076 87.8155 112.21 88.7535 112.21 90.4055ZM115.916 94.2695H117.512V86.5555H115.916V94.2695ZM116.728 85.5335C117.288 85.5335 117.736 85.0855 117.736 84.5115C117.736 83.9375 117.288 83.4895 116.728 83.4895C116.154 83.4895 115.706 83.9375 115.706 84.5115C115.706 85.0855 116.154 85.5335 116.728 85.5335ZM125.082 94.2695H126.664V89.7195C126.664 87.5635 125.306 86.4295 123.5 86.4295C122.576 86.4295 121.722 86.8075 121.204 87.4375V86.5555H119.608V94.2695H121.204V89.9575C121.204 88.5435 121.974 87.8155 123.15 87.8155C124.312 87.8155 125.082 88.5435 125.082 89.9575V94.2695ZM128.951 92.1275C128.951 93.6955 129.805 94.2695 131.177 94.2695H132.437V92.9395H131.457C130.785 92.9395 130.561 92.7015 130.561 92.1275V87.8575H132.437V86.5555H130.561V84.6375H128.951V86.5555H128.041V87.8575H128.951V92.1275ZM133.908 94.2695H135.504V86.5555H133.908V94.2695ZM134.72 85.5335C135.28 85.5335 135.728 85.0855 135.728 84.5115C135.728 83.9375 135.28 83.4895 134.72 83.4895C134.146 83.4895 133.698 83.9375 133.698 84.5115C133.698 85.0855 134.146 85.5335 134.72 85.5335ZM143.074 94.2695H144.656V89.7195C144.656 87.5635 143.298 86.4295 141.492 86.4295C140.568 86.4295 139.714 86.8075 139.196 87.4375V86.5555H137.6V94.2695H139.196V89.9575C139.196 88.5435 139.966 87.8155 141.142 87.8155C142.304 87.8155 143.074 88.5435 143.074 89.9575V94.2695ZM146.16 90.3775C146.16 92.7575 147.77 94.3955 149.8 94.3955C151.06 94.3955 151.984 93.7655 152.474 93.1075V94.3955C152.474 95.9355 151.55 96.6915 150.318 96.6915C149.212 96.6915 148.358 96.1455 148.12 95.3475H146.538C146.734 97.0555 148.26 98.0775 150.318 98.0775C152.726 98.0775 154.084 96.4955 154.084 94.3955V86.5555H152.474V87.6755C151.998 87.0175 151.06 86.4295 149.8 86.4295C147.77 86.4295 146.16 87.9975 146.16 90.3775ZM152.474 90.4055C152.474 92.0715 151.34 93.0095 150.136 93.0095C148.946 93.0095 147.798 92.0435 147.798 90.3775C147.798 88.7115 148.946 87.8155 150.136 87.8155C151.34 87.8155 152.474 88.7535 152.474 90.4055Z" fill="#9065BE"/>
</svg>
