<svg width="160" height="109" viewBox="0 0 160 109" fill="none" xmlns="http://www.w3.org/2000/svg">
<path d="M148 30.5391H12C5.37258 30.5391 0 35.9116 0 42.5391V95.9991C0 102.626 5.37258 107.999 12 107.999H148C154.627 107.999 160 102.626 160 95.9991V42.5391C160 35.9116 154.627 30.5391 148 30.5391Z" fill="#CEECFE"/>
<path d="M107.904 61.9355L80.3562 49.9355L69.6562 53.1815L88.0562 70.4965L107.904 61.9355Z" fill="#F9ACC0"/>
<path d="M16.2697 67.6108L15.6807 88.2918L22.2807 85.8918L20.2377 107.531L78.5547 107.771L74.5867 75.0658L90.0977 70.2578L81.6807 51.2578C81.6807 51.2578 59.7127 53.2418 46.2097 56.4278C39.794 58.0383 33.5205 60.1697 27.4517 62.8008C20.2377 65.8068 16.2697 67.6108 16.2697 67.6108Z" fill="#3D5CFF"/>
<path d="M35.6283 25.166C31.7812 28.052 31.0592 34.425 29.4953 38.032C27.9313 41.639 27.2112 42.602 25.7682 44.044C24.7922 44.952 23.5863 45.5758 22.2812 45.848C22.2812 45.848 27.4513 54.385 41.7603 53.664C56.0693 52.943 62.8022 46.931 65.3273 44.526C66.9408 42.8917 68.1726 40.9205 68.9342 38.754C68.9342 38.754 62.0802 38.393 59.1953 32.622C56.3103 26.851 52.9422 23.002 48.7342 23.002C44.5262 23.002 42.7222 24.685 42.7222 24.685C41.6453 23.9917 40.3735 23.6641 39.0956 23.7507C37.8177 23.8374 36.6018 24.3337 35.6283 25.166Z" fill="#1F1F39"/>
<path d="M16.0059 88.1832L22.2829 85.8832L21.9339 89.6502L23.2439 78.6602L16.0059 88.1832Z" fill="#224BF4"/>
<path d="M75.3203 81.0796L74.5873 75.0676L78.0503 73.9976L72.9873 65.2676L75.3203 81.0796Z" fill="#224BF4"/>
<path d="M61.4565 67.467C61.2815 67.8424 60.9848 68.1476 60.6145 68.333C60.2231 68.5412 59.8855 68.8377 59.6285 69.199C59.5087 69.3924 59.4315 69.6092 59.4021 69.8348C59.3727 70.0604 59.3917 70.2897 59.458 70.5074C59.5242 70.7251 59.6362 70.9261 59.7863 71.0971C59.9364 71.2681 60.1212 71.4051 60.3285 71.499C60.5565 71.607 60.7495 71.271 60.5205 71.162C60.3358 71.0825 60.1734 70.9589 60.0477 70.802C59.9219 70.645 59.8367 70.4596 59.7995 70.262C59.7611 70.0484 59.7783 69.8285 59.8494 69.6234C59.9205 69.4184 60.0431 69.235 60.2055 69.091C60.7945 68.538 61.7685 68.249 61.8645 67.335C61.8616 67.0861 61.8079 66.8405 61.7066 66.6131C61.6053 66.3858 61.4586 66.1815 61.2755 66.013C61.1315 65.833 60.8545 66.113 61.0105 66.302C61.2755 66.626 61.6005 67.023 61.4565 67.467Z" fill="white"/>
<path d="M28.4144 105.739C28.4203 105.886 28.3929 106.033 28.3342 106.168C28.2755 106.304 28.187 106.424 28.0754 106.521C27.6184 106.978 26.9934 107.194 26.6084 107.721C26.4644 107.921 26.8004 108.121 26.9454 107.913C27.184 107.64 27.469 107.412 27.7874 107.24C28.0904 107.058 28.3575 106.823 28.5754 106.545C28.6774 106.411 28.7496 106.257 28.7868 106.093C28.8241 105.929 28.8257 105.759 28.7914 105.595C28.6884 105.23 28.4919 104.898 28.2214 104.633C28.0654 104.433 27.7884 104.705 27.9444 104.898C28.1797 105.126 28.3431 105.418 28.4144 105.739Z" fill="white"/>
<path d="M67.9976 75.4992C67.7718 75.9035 67.4335 76.2335 67.0236 76.4492C66.6274 76.6503 66.2883 76.9482 66.0376 77.3152C65.9144 77.5441 65.8549 77.802 65.8655 78.0619C65.876 78.3217 65.9562 78.5739 66.0976 78.7922C66.4584 79.3086 66.9474 79.7222 67.5166 79.9922C67.5612 80.016 67.6133 80.0215 67.6619 80.0074C67.7104 79.9934 67.7516 79.961 67.7766 79.9171C67.8016 79.8732 67.8085 79.8212 67.7958 79.7723C67.7831 79.7234 67.7519 79.6814 67.7086 79.6552C67.2095 79.4271 66.7756 79.0774 66.4466 78.6382C66.31 78.4445 66.2406 78.2114 66.2493 77.9746C66.258 77.7377 66.3442 77.5103 66.4946 77.3272C66.8137 77.0306 67.1692 76.7759 67.5526 76.5692C67.9503 76.3104 68.2573 75.9338 68.4306 75.4922C68.6198 74.9723 68.6027 74.3997 68.3826 73.8922C68.3704 73.8696 68.3538 73.8497 68.3338 73.8336C68.3138 73.8175 68.2908 73.8056 68.2661 73.7985C68.2414 73.7914 68.2156 73.7893 68.1901 73.7924C68.1646 73.7954 68.14 73.8035 68.1176 73.8162C68.072 73.8408 68.0377 73.8822 68.0221 73.9317C68.0064 73.9811 68.0105 74.0347 68.0336 74.0812C68.1259 74.3072 68.1704 74.5499 68.1642 74.7939C68.158 75.038 68.1013 75.2781 67.9976 75.4992Z" fill="white"/>
<path d="M34.4866 94.1365C34.5347 93.7935 34.5347 93.4455 34.4866 93.1025C34.4306 92.8204 34.2862 92.5635 34.0744 92.369C33.8626 92.1744 33.5944 92.0524 33.3086 92.0205C32.9602 91.9781 32.6067 92.015 32.2746 92.1285C31.9746 92.2285 31.6856 92.3685 31.3746 92.4535C31.2305 92.5088 31.0743 92.5247 30.922 92.4994C30.7697 92.474 30.627 92.4085 30.5086 92.3095C30.2961 92.1093 30.1378 91.8585 30.0486 91.5805C29.9467 91.2795 29.9145 90.9593 29.9544 90.644C29.9942 90.3288 30.1051 90.0267 30.2786 89.7605C30.4106 89.5555 30.0856 89.3635 29.9416 89.5675C29.6231 90.063 29.4909 90.6556 29.5686 91.2395C29.5971 91.5343 29.6866 91.8199 29.8316 92.0782C29.9766 92.3364 30.1738 92.5617 30.4106 92.7395C30.9996 93.1245 31.6606 92.7635 32.2386 92.5595C32.5128 92.4172 32.8245 92.3639 33.1304 92.4069C33.4363 92.4499 33.7212 92.5871 33.9456 92.7995C34.1267 93.125 34.1862 93.5042 34.1136 93.8695C34.09 94.2962 34.023 94.7194 33.9136 95.1325C33.8656 95.3485 34.2386 95.4575 34.2986 95.2165C34.3922 94.8626 34.4551 94.5012 34.4866 94.1365Z" fill="white"/>
<path d="M69.7279 95.3627C69.1029 95.3387 68.6579 95.9157 68.2129 96.2757C67.7848 96.7093 67.2279 96.9928 66.6253 97.0838C66.0228 97.1748 65.407 97.0685 64.8699 96.7807C64.6171 96.6179 64.4153 96.3872 64.2876 96.115C64.1599 95.8428 64.1115 95.5402 64.1479 95.2417C64.1969 94.9987 63.8239 94.8937 63.7759 95.1337C63.7199 95.6806 63.8739 96.2284 64.2066 96.666C64.5393 97.1036 65.026 97.3984 65.5679 97.4907C66.1797 97.5878 66.8066 97.4997 67.3679 97.2377C67.9365 96.9684 68.4565 96.6069 68.9069 96.1677C69.1269 95.9757 69.4149 95.7107 69.7279 95.7587C69.9279 95.7827 70.2329 96.0117 70.1009 96.2397C70.0169 96.4397 70.3409 96.6397 70.4619 96.4197C70.7379 95.9277 70.2329 95.3867 69.7279 95.3627Z" fill="white"/>
<path d="M55.8039 83.1941C55.7731 83.4712 55.675 83.7367 55.5181 83.9673C55.3613 84.1978 55.1504 84.3866 54.9039 84.5171C54.383 84.8099 53.9314 85.2117 53.5799 85.6951C53.4216 85.9211 53.3417 86.1929 53.3525 86.4687C53.3634 86.7445 53.4643 87.0091 53.6399 87.2221C53.8596 87.4128 54.1204 87.55 54.402 87.6231C54.6836 87.6961 54.9783 87.7029 55.2629 87.6431C55.3709 87.6311 55.4189 87.4991 55.3949 87.4031C55.3709 87.3071 55.2629 87.2541 55.1529 87.2701C54.9248 87.3199 54.6878 87.3119 54.4635 87.2468C54.2393 87.1816 54.0349 87.0614 53.8689 86.8971C53.5079 86.4281 53.8689 85.8391 54.2179 85.4901C54.6179 85.0901 55.1319 84.8651 55.5409 84.4901C55.7505 84.316 55.917 84.0958 56.0274 83.8467C56.1377 83.5975 56.1889 83.3263 56.1769 83.0541C56.1015 82.3931 55.8047 81.7771 55.3349 81.3061C55.1669 81.1381 54.9029 81.4141 55.0709 81.5951C55.5074 82.0171 55.769 82.5879 55.8039 83.1941Z" fill="white"/>
<path d="M51.4285 98.4035C51.5472 98.6328 51.5972 98.8914 51.5725 99.1485C51.5141 99.4478 51.3997 99.7335 51.2355 99.9905C51.0612 100.258 50.9264 100.55 50.8355 100.856C50.7672 101.138 50.7714 101.431 50.8475 101.71C50.9186 101.99 51.0568 102.248 51.2503 102.462C51.4437 102.675 51.6865 102.839 51.9575 102.937C52.2687 103.041 52.6024 103.058 52.9225 102.986C53.2425 102.914 53.5368 102.756 53.7735 102.528C53.9535 102.36 53.6735 102.083 53.4965 102.251C53.2991 102.441 53.0509 102.57 52.7819 102.621C52.5129 102.672 52.2349 102.644 51.9815 102.54C51.7376 102.426 51.5318 102.244 51.3888 102.016C51.2459 101.787 51.1718 101.523 51.1755 101.253C51.1755 100.64 51.6445 100.159 51.8485 99.6185C51.9412 99.3664 51.9742 99.0962 51.9451 98.8292C51.9159 98.5622 51.8254 98.3056 51.6805 98.0795C51.5284 97.8189 51.3132 97.6007 51.0548 97.445C50.7964 97.2894 50.5029 97.2011 50.2015 97.1885C49.9615 97.1655 49.9615 97.5625 50.2015 97.5625C50.4624 97.5805 50.7138 97.668 50.9295 97.8159C51.1452 97.9638 51.3175 98.1666 51.4285 98.4035Z" fill="white"/>
<path d="M37.5646 62.4529C37.7452 62.936 37.7323 63.4702 37.5286 63.9439C37.3021 64.4564 36.9702 64.9153 36.5546 65.2909C36.2176 65.6399 35.8336 66.1449 36.0976 66.6499C36.2695 66.8969 36.526 67.0723 36.8186 67.1429C37.1618 67.2629 37.5258 67.3119 37.8886 67.2869C38.1416 67.2749 38.1416 66.8869 37.8886 66.9019C37.5792 66.9162 37.2697 66.8756 36.9746 66.7819C36.7586 66.7099 36.4346 66.6009 36.4096 66.3369C36.4268 66.1004 36.5296 65.8783 36.6986 65.7119C36.8786 65.5119 37.0836 65.3269 37.2516 65.1229C37.6281 64.7441 37.8874 64.2646 37.9983 63.7421C38.1091 63.2195 38.0669 62.6761 37.8766 62.1769C37.772 61.9291 37.6145 61.707 37.4152 61.5263C37.2159 61.3457 36.9795 61.2107 36.7226 61.1309C36.6731 61.1209 36.6217 61.13 36.5786 61.1563C36.5355 61.1826 36.504 61.2242 36.4903 61.2728C36.4766 61.3214 36.4818 61.3734 36.5049 61.4183C36.5279 61.4632 36.5671 61.4977 36.6146 61.5149C36.8334 61.5895 37.0326 61.7126 37.1971 61.875C37.3616 62.0375 37.4873 62.235 37.5646 62.4529Z" fill="white"/>
<path d="M46.3302 71.881C46.0058 71.9489 45.7045 72.0998 45.4558 72.3188C45.2071 72.5379 45.0194 72.8177 44.9112 73.131C44.6462 73.768 44.5862 74.55 44.0692 75.043C43.7942 75.2801 43.4554 75.4307 43.0952 75.476C42.7373 75.5441 42.3694 75.5401 42.0132 75.464C41.6217 75.3417 41.2639 75.1305 40.9678 74.8468C40.6716 74.5632 40.4452 74.2148 40.3062 73.829C40.2212 73.6 39.8492 73.697 39.9332 73.937C40.1941 74.6624 40.7117 75.2672 41.3882 75.637C42.0603 75.9599 42.831 76.0114 43.5402 75.781C43.9066 75.6811 44.2338 75.4718 44.4782 75.181C44.6987 74.8924 44.8657 74.5665 44.9712 74.219C45.1762 73.588 45.3082 72.819 45.9212 72.445C46.2263 72.2634 46.584 72.1909 46.9357 72.2392C47.2874 72.2876 47.6123 72.4539 47.8572 72.711C48.0132 72.891 48.2902 72.627 48.1222 72.434C47.8948 72.1975 47.6111 72.0226 47.2976 71.9259C46.9842 71.8291 46.6512 71.8137 46.3302 71.881Z" fill="white"/>
<path d="M68.4419 53.4839C67.9526 53.8235 67.5014 54.2148 67.0959 54.6509C66.8884 54.8475 66.6372 54.9918 66.3629 55.0719C65.9927 55.1538 65.6063 55.1189 65.2569 54.9719C64.888 54.8525 64.5509 54.6511 64.2709 54.3829C64.0124 54.1007 63.8192 53.7651 63.7049 53.3999C63.6906 53.3505 63.6572 53.3087 63.6121 53.2839C63.567 53.259 63.5138 53.2531 63.4644 53.2674C63.4149 53.2817 63.3732 53.3151 63.3483 53.3602C63.3235 53.4053 63.3176 53.4585 63.3319 53.5079C63.5132 54.1627 63.9397 54.7224 64.5229 55.0709C64.8276 55.2726 65.1723 55.406 65.5334 55.4621C65.8944 55.5182 66.2633 55.4956 66.6149 55.3959C67.1473 55.1265 67.6213 54.7547 68.0099 54.3019C68.1883 54.0861 68.4154 53.9158 68.6725 53.805C68.9297 53.6943 69.2095 53.6463 69.4889 53.6649C69.7925 53.705 70.0777 53.8335 70.3088 54.0344C70.54 54.2353 70.7069 54.4998 70.7889 54.7949C70.8043 54.8447 70.8385 54.8866 70.8843 54.9115C70.9301 54.9364 70.9838 54.9425 71.034 54.9284C71.0842 54.9143 71.1269 54.8812 71.153 54.8361C71.1791 54.791 71.1866 54.7375 71.1739 54.6869C71.0972 54.4119 70.9604 54.1572 70.7734 53.9414C70.5864 53.7256 70.3539 53.554 70.0926 53.4389C69.8312 53.3238 69.5476 53.2682 69.2622 53.276C68.9767 53.2837 68.6966 53.3548 68.4419 53.4839Z" fill="white"/>
<path d="M33.5125 78.5775C33.5624 79.1117 33.5091 79.6505 33.3555 80.1645C33.3027 80.4002 33.2979 80.6442 33.3414 80.8817C33.3848 81.1193 33.4757 81.3458 33.6085 81.5475C33.7447 81.723 33.9199 81.8643 34.1202 81.9603C34.3205 82.0563 34.5404 82.1043 34.7625 82.1005C35.0179 82.0867 35.2665 82.0129 35.488 81.885C35.7095 81.7571 35.8978 81.5788 36.0375 81.3645C36.1815 81.1645 35.8455 80.9645 35.7005 81.1725C35.5831 81.3494 35.4214 81.4923 35.2316 81.5873C35.0418 81.6822 34.8304 81.7257 34.6185 81.7135C34.41 81.6945 34.2126 81.6114 34.0532 81.4757C33.8939 81.34 33.7805 81.1583 33.7285 80.9555C33.5005 80.0175 34.2695 79.0075 33.7165 78.1175C33.6054 77.9159 33.4311 77.7563 33.2204 77.6634C33.0097 77.5706 32.7743 77.5495 32.5505 77.6035C32.3245 77.6645 32.4305 78.0365 32.6705 77.9645C33.0675 77.8315 33.4245 78.2165 33.5125 78.5775Z" fill="white"/>
<path d="M55.793 56.8622C55.6875 57.5474 55.3916 58.1891 54.939 58.7142C54.3811 59.3333 53.6998 59.8289 52.939 60.1692C51.9264 60.6276 50.8714 60.986 49.789 61.2392C48.1516 61.7227 46.4297 61.8498 44.739 61.6122C43.6773 61.4293 42.6922 60.9399 41.905 60.2042C41.3007 59.5923 40.8047 58.8822 40.438 58.1042C40.3931 58.0223 40.3531 57.9378 40.318 57.8512C40.21 57.6232 39.873 57.8272 39.981 58.0432C40.3578 58.8466 40.8434 59.5943 41.424 60.2652C42.185 61.076 43.1679 61.6446 44.25 61.9002C45.9047 62.2411 47.6157 62.196 49.25 61.7682C50.3961 61.5263 51.5187 61.1843 52.605 60.7462C53.4527 60.4137 54.2322 59.9287 54.905 59.3152C55.4513 58.7999 55.85 58.1482 56.06 57.4272C56.2553 56.6798 56.2707 55.8967 56.105 55.1422C56.0644 54.9312 56.0123 54.7226 55.949 54.5172C55.9347 54.4693 55.902 54.4291 55.858 54.4054C55.814 54.3817 55.7624 54.3764 55.7145 54.3907C55.6667 54.405 55.6264 54.4378 55.6027 54.4818C55.579 54.5257 55.5737 54.5773 55.588 54.6252C55.8177 55.3472 55.8877 56.1105 55.793 56.8622Z" fill="white"/>
<path d="M77.4071 52.0062L85.2234 71.9696L84.9999 72.0571L77.1836 52.0938L77.4071 52.0062Z" fill="white"/>
<path d="M83.3954 67.5942L83.4609 67.8251L73.8409 70.5551L73.7754 70.3242L83.3954 67.5942Z" fill="white"/>
<path d="M80.4191 55.7665C68.9961 49.5135 62.6191 45.7865 62.6191 45.7865C60.9433 45.4042 59.3542 44.7109 57.9341 43.7425C56.3711 42.4195 58.3551 35.5025 58.3551 35.5025C58.3551 35.5025 57.0931 31.3575 57.6941 30.9975C58.2951 30.6375 59.1341 30.2755 61.1811 32.0795C62.5571 33.4634 63.587 35.1525 64.1871 37.0095C64.1871 37.0095 89.9181 40.4965 97.3731 43.1415C104.828 45.7865 111.321 49.0335 110.72 56.6085C110.119 64.1835 102.303 63.2215 102.303 63.2215C94.6291 62.0333 87.2225 59.5102 80.4191 55.7665Z" fill="#F9D2DD"/>
<path d="M57.9341 33.9688C58.1341 34.8108 58.3551 35.5078 58.3551 35.5078C58.3551 35.5078 56.3711 42.4218 57.9341 43.7448C58.7937 44.3912 59.752 44.8947 60.7721 45.2358C61.7721 43.9608 63.1651 41.6648 62.6841 39.1157C62.1551 36.3137 59.3891 34.6538 57.9341 33.9688Z" fill="#F9ACC0"/>
<path d="M57.4679 43.2282C55.5002 43.4735 53.6628 41.6689 53.3547 39.197C53.0465 36.7252 54.3846 34.5247 56.3524 34.2794C58.3201 34.0341 60.1576 35.8397 60.4656 38.3105C60.7736 40.7814 59.4317 42.9833 57.4679 43.2282Z" fill="#F99A3D"/>
<path d="M56.6161 42.0777C55.1909 42.1748 53.9374 40.8024 53.8155 39.0129C53.6935 37.2235 54.7494 35.6948 56.1746 35.5977C57.5997 35.5006 58.8533 36.873 58.9751 38.6614C59.097 40.4498 58.0412 41.9806 56.6161 42.0777Z" fill="#FF7F2D"/>
<path d="M35.6301 42.7219C35.2931 46.1219 40.8001 47.5319 40.8001 47.5319C41.482 49.8582 42.0042 52.2284 42.3631 54.6259C42.5041 56.2662 42.5041 57.9156 42.3631 59.5559C44.3719 60.6924 46.7466 60.9948 48.9761 60.3979C53.9061 59.3159 54.1461 57.2719 54.1461 57.2719L52.2221 49.3359C53.4001 48.9115 54.4385 48.1708 55.2233 47.1951C56.0081 46.2195 56.509 45.0465 56.6711 43.8049C57.5131 39.3559 56.0711 33.9449 56.0711 33.9449L49.9391 35.1449L48.0151 33.4629V35.5069L42.2431 37.0699L40.6801 35.3869C40.6801 35.3869 41.7621 36.7099 41.1611 39.7159C40.5601 42.7219 40.1991 42.8419 40.1991 42.8419L39.9591 40.6779C39.9591 40.6779 36.1151 37.7919 35.6301 42.7219Z" fill="#F9D2DD"/>
<path d="M44.8496 43.5753C43.4841 43.8243 42.2538 43.3483 42.1013 42.5121C41.9488 41.6759 42.9319 40.7962 44.2974 40.5472C45.6629 40.2982 46.8933 40.7742 47.0458 41.6104C47.1982 42.4466 46.2141 43.3264 44.8496 43.5753Z" fill="#F9ACC0"/>
<path d="M52.2819 36.6498C52.3628 36.4956 52.4754 36.3603 52.6122 36.2526C52.749 36.1449 52.907 36.0673 53.0759 36.0248C53.2373 35.9873 53.4034 35.9735 53.5689 35.9838C53.738 35.9948 53.9025 36.044 54.0499 36.1278C54.1973 36.2018 54.3194 36.3179 54.4008 36.4614C54.4821 36.6049 54.519 36.7693 54.5069 36.9338C54.3182 36.7793 54.0877 36.6846 53.8449 36.6618C53.7452 36.6498 53.6445 36.6498 53.5449 36.6618C53.4922 36.6632 53.4399 36.6706 53.3889 36.6838C53.3289 36.6838 53.2889 36.7078 53.2449 36.7078C53.156 36.7283 53.0707 36.762 52.9919 36.8078C52.8998 36.8503 52.8145 36.9063 52.7389 36.9738C52.5829 37.1298 52.4139 37.3228 52.2219 37.5508C52.1693 37.4046 52.1474 37.2491 52.1578 37.094C52.1681 36.939 52.2103 36.7877 52.2819 36.6498Z" fill="#1F1F39"/>
<path d="M44.6351 38.2745C44.7 38.1256 44.7941 37.9912 44.9117 37.8792C45.0293 37.7673 45.1682 37.68 45.3201 37.6225C45.3691 37.6105 45.4011 37.5985 45.4531 37.5865L45.5131 37.5745H45.7131C45.7535 37.5731 45.7938 37.5771 45.8331 37.5865C45.9932 37.605 46.1483 37.6539 46.2901 37.7305C46.4346 37.8147 46.5549 37.935 46.6391 38.0795C46.6756 38.151 46.6999 38.228 46.7111 38.3075C46.7259 38.3835 46.7225 38.462 46.7011 38.5365C46.6063 38.456 46.501 38.3887 46.3881 38.3365C46.2953 38.3045 46.1989 38.2837 46.1011 38.2745H45.7411C45.7171 38.2745 45.7011 38.2835 45.6811 38.2835H45.6571L45.6331 38.2955C45.6211 38.2955 45.5971 38.3075 45.5851 38.3075C45.4131 38.3806 45.2546 38.482 45.1161 38.6075C44.9241 38.7515 44.7551 38.9325 44.5271 39.1125C44.4727 38.8288 44.5106 38.5351 44.6351 38.2745Z" fill="#1F1F39"/>
<path d="M50.6839 38.4171C50.8191 38.5262 50.9403 38.6515 51.0449 38.7901C51.1588 38.9342 51.2369 39.1031 51.2729 39.2831C51.287 39.3793 51.283 39.4774 51.2609 39.5721C51.2523 39.6184 51.2361 39.663 51.2129 39.7041C51.2031 39.7521 51.1826 39.7972 51.1529 39.8361C51.0687 40.0019 50.9394 40.1405 50.7799 40.2361C50.4856 40.4182 50.1359 40.4892 49.7939 40.4361C50.111 40.3795 50.4111 40.252 50.6719 40.0631C50.7928 39.9749 50.8847 39.8527 50.9359 39.7121C50.9515 39.6801 50.9635 39.6466 50.9719 39.6121C50.9845 39.58 50.9926 39.5464 50.9959 39.5121C51.0075 39.4459 51.0075 39.3783 50.9959 39.3121C50.9686 39.1685 50.9114 39.0322 50.8279 38.9121C50.7382 38.7836 50.6378 38.6629 50.5279 38.5511C50.3108 38.3174 50.0732 38.1035 49.8179 37.9121C50.1318 38.033 50.4242 38.2035 50.6839 38.4171Z" fill="#1F1F39"/>
<path d="M50.4308 41.8928C51.1864 41.7732 51.9054 41.4854 52.5348 41.0508C52.5348 41.0508 53.3528 43.7078 52.4348 44.6218C51.5168 45.5358 49.1688 45.6798 48.5558 44.0088C47.9428 42.3378 48.1468 41.9648 48.1468 41.9648C48.9072 42.0608 49.678 42.0365 50.4308 41.8928Z" fill="#F95368"/>
<path d="M52.7624 43.9923C52.102 43.7551 51.3845 43.7268 50.7074 43.9113C50.1075 44.0734 49.5575 44.3828 49.1074 44.8113C49.6036 45.1516 50.1987 45.3176 50.7994 45.2832C51.4 45.2488 51.9723 45.016 52.4264 44.6213C52.5895 44.4433 52.7051 44.2269 52.7624 43.9923Z" fill="#F9ACC0"/>
<path d="M41.1605 39.7278C40.5605 42.7338 40.1985 42.8538 40.1985 42.8538L39.9585 40.6898C39.8629 40.6192 39.7627 40.5551 39.6585 40.4978L37.2285 45.8478C38.3111 46.6136 39.5198 47.1833 40.7995 47.5308C40.7995 47.5308 40.9195 47.9308 41.0765 48.5528C42.0816 47.2792 42.7526 45.7747 43.0285 44.1758C43.3245 43.1612 43.3215 42.0828 43.02 41.0699C42.7185 40.0569 42.1312 39.1524 41.3285 38.4648C41.3034 38.8894 41.2472 39.3115 41.1605 39.7278Z" fill="#F9ACC0"/>
<path d="M39.5832 47.5071C37.4032 47.6548 35.486 45.5566 35.3005 42.8199C35.1151 40.0831 36.7318 37.7455 38.9118 37.5978C41.0918 37.4501 43.009 39.5483 43.1944 42.285C43.3799 45.0218 41.7632 47.3594 39.5832 47.5071Z" fill="#F99A3D"/>
<path d="M39.058 45.5632C37.6333 45.6597 36.3807 44.2872 36.2595 42.4983C36.1383 40.7094 37.1944 39.1816 38.6191 39.085C40.0439 38.9885 41.2965 40.361 41.4176 42.1489C41.5388 43.9368 40.4828 45.4666 39.058 45.5632Z" fill="#FF7F2D"/>
<path d="M35.9907 28.2912C34.8524 30.3073 34.2711 32.5901 34.3067 34.9052C34.2707 36.5219 34.4332 38.137 34.7907 39.7142L37.5447 38.5142C37.5447 38.5142 36.6907 32.8002 38.0337 29.4942C38.6532 27.8995 39.7281 26.5223 41.1247 25.5342C41.1967 25.4862 41.6417 25.1972 42.0147 24.9932C42.1347 24.9332 42.2427 24.8852 42.3277 24.8372L42.7277 24.6812C42.7277 24.6812 43.3167 24.3322 43.8097 24.0812C44.3954 23.8068 44.9964 23.566 45.6097 23.3602C43.9486 22.8584 42.1656 22.9432 40.5597 23.6002C38.5679 24.6265 36.9642 26.2731 35.9907 28.2912Z" fill="#F99A3D"/>
<path d="M46.0537 105.846C43.9977 105.413 41.7367 104.716 40.6427 102.936C39.8487 101.649 39.7527 99.9421 40.3427 97.7421C40.9797 95.3491 43.0717 93.3531 45.4887 91.0421C48.6387 88.0361 52.2097 84.6211 53.5687 79.3421C55.3487 72.4161 49.0837 67.3181 44.5267 63.5901C43.2204 62.6023 41.9979 61.5082 40.8717 60.3191C39.4887 58.6881 38.7317 55.9831 38.6347 52.3031C38.5946 50.6238 38.6791 48.9439 38.8877 47.2771C38.892 47.2452 38.9026 47.2144 38.9189 47.1866C38.9352 47.1587 38.9568 47.1344 38.9826 47.1151C39.0084 47.0957 39.0378 47.0817 39.069 47.0738C39.1003 47.0659 39.1328 47.0643 39.1647 47.0691C39.2267 47.0817 39.2817 47.1172 39.3188 47.1685C39.3558 47.2199 39.3722 47.2833 39.3647 47.3461C39.3567 47.4331 38.0937 56.3071 41.2327 60.0231C42.338 61.1885 43.5363 62.2621 44.8157 63.2331C49.4807 67.0331 55.8777 72.2511 54.0257 79.4771C52.6427 84.8881 49.0117 88.3511 45.8137 91.4051C43.4447 93.6411 41.4007 95.5891 40.7997 97.8621C40.2467 99.9301 40.3307 101.517 41.0527 102.684C41.8467 103.984 43.3737 104.784 46.1527 105.377C48.4141 105.869 50.7348 106.031 53.0427 105.858C53.0735 105.854 53.1047 105.856 53.1347 105.864C53.1647 105.873 53.1927 105.887 53.2173 105.906C53.2418 105.925 53.2624 105.948 53.2779 105.975C53.2933 106.002 53.3032 106.032 53.3072 106.063C53.3111 106.093 53.309 106.125 53.3008 106.155C53.2927 106.185 53.2787 106.213 53.2597 106.237C53.2407 106.262 53.2171 106.282 53.1901 106.298C53.1632 106.313 53.1335 106.323 53.1027 106.327C52.5197 106.392 51.9332 106.42 51.3467 106.411C49.5676 106.406 47.7938 106.217 46.0537 105.846Z" fill="#1F1F39"/>
<path d="M50.2975 68.8736C50.2587 68.8237 50.2408 68.7606 50.2475 68.6978C50.2542 68.6349 50.285 68.5771 50.3335 68.5366C50.4065 68.4776 57.4405 62.8136 59.4465 55.8756C60.617 51.5815 60.2825 47.0161 58.4985 42.9386C58.4843 42.9101 58.4758 42.8792 58.4735 42.8474C58.4712 42.8157 58.4752 42.7839 58.4852 42.7537C58.4953 42.7235 58.5111 42.6956 58.5319 42.6716C58.5528 42.6475 58.5781 42.6278 58.6065 42.6136C58.635 42.5993 58.6659 42.5908 58.6976 42.5885C58.7294 42.5862 58.7612 42.5902 58.7914 42.6002C58.8216 42.6103 58.8495 42.6262 58.8735 42.647C58.8976 42.6678 58.9173 42.6931 58.9315 42.7216C60.7654 46.9048 61.1092 51.5904 59.9055 55.9966C57.8615 63.0786 50.7065 68.8376 50.6345 68.8976C50.6193 68.9214 50.5978 68.9407 50.5725 68.9534C50.5471 68.9661 50.5188 68.9717 50.4905 68.9696C50.4533 68.9689 50.4166 68.9599 50.3832 68.9433C50.3498 68.9267 50.3206 68.9029 50.2975 68.8736Z" fill="#1F1F39"/>
<path d="M47.7254 87.8953L48.1454 87.4753C48.2336 87.3818 48.3396 87.307 48.4573 87.2552C48.5749 87.2035 48.7017 87.1758 48.8302 87.1739C48.9587 87.172 49.0863 87.1959 49.2054 87.2442C49.3245 87.2925 49.4327 87.3642 49.5237 87.455C49.6146 87.5459 49.6863 87.654 49.7347 87.7731C49.7831 87.8922 49.8071 88.0197 49.8053 88.1483C49.8035 88.2768 49.7759 88.4036 49.7242 88.5213C49.6726 88.6389 49.5978 88.7451 49.5044 88.8333L49.0834 89.2543C48.9015 89.426 48.6598 89.5199 48.4098 89.5162C48.1597 89.5126 47.9209 89.4115 47.7441 89.2346C47.5673 89.0577 47.4665 88.8188 47.463 88.5688C47.4595 88.3187 47.5536 88.0771 47.7254 87.8953Z" fill="#1F1F39"/>
<path d="M52.2951 49.6588C52.3431 49.4668 50.7801 50.0668 49.0961 50.0668C46.3191 50.0668 45.3691 49.4668 45.3691 49.4668C45.3691 49.4668 48.0141 52.8338 50.7801 53.9158C51.6524 54.2605 52.5657 54.4908 53.4971 54.6008L52.2951 49.6588Z" fill="#F9ACC0"/>
<path d="M44.9721 49.4423C44.9585 49.4368 44.9462 49.4287 44.9359 49.4184C44.9255 49.4081 44.9173 49.3959 44.9117 49.3824C44.9061 49.3689 44.9033 49.3544 44.9033 49.3398C44.9034 49.3252 44.9064 49.3107 44.9121 49.2973C44.9176 49.2837 44.9257 49.2714 44.936 49.261C44.9463 49.2507 44.9585 49.2425 44.972 49.2369C44.9855 49.2313 45 49.2284 45.0146 49.2285C45.0292 49.2286 45.0436 49.2316 45.0571 49.2373C46.3444 49.7357 47.717 49.9766 49.0971 49.9463C50.1581 49.92 51.2103 49.7456 52.2231 49.4283C52.2373 49.4233 52.2523 49.4212 52.2673 49.4221C52.2823 49.4231 52.2969 49.427 52.3103 49.4338C52.3238 49.4405 52.3357 49.4498 52.3455 49.4612C52.3552 49.4727 52.3626 49.486 52.3671 49.5003C52.3721 49.5144 52.3742 49.5295 52.3732 49.5445C52.3723 49.5595 52.3683 49.5741 52.3616 49.5875C52.3549 49.601 52.3455 49.6129 52.3341 49.6227C52.3227 49.6324 52.3094 49.6398 52.2951 49.6443C51.2603 49.9771 50.182 50.1553 49.0951 50.1733H48.7951C47.4882 50.1517 46.1948 49.9044 44.9721 49.4423Z" fill="#1F1F39"/>
<path d="M53.2443 107.532C52.8782 107.53 52.5276 107.383 52.2687 107.124C52.0098 106.865 51.8634 106.515 51.8613 106.149C51.8634 105.782 52.0098 105.432 52.2687 105.173C52.5276 104.914 52.8782 104.768 53.2443 104.766H72.2443C72.6105 104.768 72.961 104.914 73.2199 105.173C73.4788 105.432 73.6252 105.782 73.6273 106.149C73.6284 106.331 73.5933 106.511 73.5242 106.679C73.4551 106.847 73.3533 107 73.2246 107.129C73.096 107.258 72.9431 107.359 72.7748 107.429C72.6066 107.498 72.4262 107.533 72.2443 107.532H53.2443Z" fill="#EAEAFF"/>
<path d="M24.2053 72.1797L22.2812 85.8867L24.2053 72.1797Z" fill="#1F1F39"/>
<path d="M22.2716 86.0085C22.2562 86.0069 22.2412 86.0022 22.2276 85.9946C22.2141 85.987 22.2022 85.9767 22.1929 85.9643C22.1835 85.9519 22.1767 85.9377 22.1731 85.9226C22.1694 85.9075 22.1689 85.8918 22.1716 85.8765L24.0976 72.1705C24.1049 72.1427 24.1223 72.1186 24.1464 72.1029C24.1705 72.0871 24.1995 72.0809 24.2279 72.0854C24.2563 72.0899 24.282 72.1048 24.3001 72.1271C24.3181 72.1495 24.3272 72.1778 24.3256 72.2065L22.4016 85.9125C22.3953 85.94 22.3802 85.9646 22.3585 85.9827C22.3368 86.0008 22.3098 86.0112 22.2816 86.0125L22.2716 86.0085Z" fill="#1F1F39"/>
<path d="M27.6957 38.0317C28.7643 35.981 30.3885 34.2725 32.3827 33.1017C33.7057 32.7407 34.0657 33.5827 34.0657 33.5827C34.3242 33.3539 34.634 33.1908 34.9689 33.1071C35.3038 33.0234 35.6539 33.0215 35.9897 33.1017C36.2692 33.2096 36.5159 33.3882 36.7056 33.6201C36.8953 33.8521 37.0214 34.1293 37.0717 34.4247C37.3466 34.2213 37.6745 34.1017 38.0158 34.0802C38.3571 34.0588 38.6974 34.1364 38.9957 34.3037C39.8377 34.7847 39.5957 35.9867 38.9957 36.7037C38.3957 37.4207 36.5957 38.7477 36.4707 39.4697C36.3457 40.1917 39.4767 47.8867 38.0337 53.0567C36.5907 58.2267 24.9277 78.6727 19.5167 85.4057C14.1057 92.1387 7.13168 91.1777 4.96768 89.4947C3.03278 88.0153 1.69892 85.8854 1.2127 83.4987C0.726473 81.1121 1.12077 78.6301 2.32268 76.5117C5.68868 70.0117 27.6957 46.9297 27.6957 46.9297C27.6957 46.9297 26.8517 40.0757 27.6957 38.0317Z" fill="#F9D2DD"/>
<path d="M33.4769 42.6254C33.4409 42.4574 32.6349 38.3444 33.9819 36.8774C34.8928 35.9164 35.9092 35.0613 37.0119 34.3284C37.0243 34.3196 37.0383 34.3136 37.0532 34.3106C37.068 34.3077 37.0833 34.3079 37.098 34.3113C37.1128 34.3147 37.1266 34.3212 37.1387 34.3304C37.1507 34.3395 37.1607 34.3511 37.1679 34.3644C37.1767 34.3767 37.1828 34.3908 37.1857 34.4056C37.1887 34.4205 37.1884 34.4358 37.185 34.4505C37.1816 34.4652 37.1751 34.4791 37.166 34.4912C37.1568 34.5032 37.1452 34.5132 37.1319 34.5204C36.0514 35.2447 35.0517 36.0828 34.1499 37.0204C32.8759 38.4084 33.6929 42.5294 33.6929 42.5774C33.6958 42.5918 33.6959 42.6066 33.693 42.621C33.6901 42.6354 33.6845 42.6491 33.6763 42.6613C33.6681 42.6735 33.6576 42.6839 33.6453 42.692C33.6331 42.7001 33.6194 42.7057 33.6049 42.7084C33.6049 42.7204 33.5929 42.7204 33.5809 42.7204C33.5555 42.7185 33.5314 42.7081 33.5125 42.6909C33.4937 42.6737 33.4811 42.6506 33.4769 42.6254Z" fill="#1F1F39"/>
<path d="M29.9893 40.9299C29.9773 40.7979 29.7643 37.6229 30.8553 36.2769C31.8005 35.235 32.8568 34.2994 34.0053 33.4869C34.0296 33.4691 34.06 33.4616 34.0898 33.4661C34.1196 33.4706 34.1464 33.4867 34.1643 33.5109C34.1806 33.5353 34.1869 33.565 34.1818 33.5938C34.1768 33.6227 34.1609 33.6485 34.1373 33.6659C33.0091 34.4663 31.9698 35.3852 31.0373 36.4069C29.9893 37.6829 30.2183 40.8659 30.2183 40.8939C30.2208 40.9288 30.2098 40.9633 30.1874 40.9902C30.165 41.017 30.1331 41.0341 30.0983 41.0379C30.084 41.0381 30.0699 41.0354 30.0567 41.03C30.0434 41.0246 30.0314 41.0167 30.0213 41.0067C30.0112 40.9966 30.0031 40.9847 29.9976 40.9715C29.9921 40.9583 29.9893 40.9442 29.9893 40.9299Z" fill="#1F1F39"/>
<path d="M72.7842 64.0039L74.5842 75.0659L72.7842 64.0039Z" fill="#1F1F39"/>
<path d="M74.479 75.0932L72.674 64.0272C72.6697 63.9962 72.6778 63.9648 72.6965 63.9397C72.7152 63.9146 72.743 63.8979 72.774 63.8932C72.8043 63.89 72.8348 63.8986 72.859 63.9173C72.8832 63.9359 72.8993 63.9631 72.904 63.9932L74.704 75.0552C74.7077 75.0859 74.6994 75.1168 74.6807 75.1415C74.662 75.1661 74.6345 75.1825 74.604 75.1872H74.588C74.5746 75.1885 74.5611 75.187 74.5483 75.1829C74.5355 75.1788 74.5237 75.1722 74.5135 75.1634C74.5033 75.1546 74.495 75.1439 74.4891 75.1318C74.4832 75.1198 74.4797 75.1066 74.479 75.0932Z" fill="#1F1F39"/>
<path d="M49.1918 42.5764C49.195 42.6103 49.2052 42.6431 49.2218 42.6728C49.2384 42.7025 49.2611 42.7283 49.2883 42.7487C49.3156 42.769 49.3468 42.7834 49.3799 42.791C49.4131 42.7985 49.4475 42.799 49.4808 42.7924L50.6588 42.5984C51.0577 42.5203 51.4512 42.4168 51.8368 42.2884C51.8708 42.2831 51.9034 42.2711 51.9326 42.2531C51.9619 42.2351 51.9874 42.2114 52.0074 42.1835C52.0275 42.1556 52.0419 42.124 52.0497 42.0905C52.0575 42.057 52.0585 42.0223 52.0528 41.9884L51.9218 41.3984C51.4447 41.6256 50.9407 41.7913 50.4218 41.8914C49.9962 41.9695 49.5645 42.0096 49.1318 42.0114L49.1918 42.5764Z" fill="white"/>
<path d="M1.50487 78.4336C0.871433 80.4095 0.864175 82.5329 1.48409 84.5132C2.104 86.4934 3.32079 88.2336 4.96787 89.4956C7.13187 91.1786 14.1059 92.1406 19.5169 85.4076C20.0459 84.7466 20.6469 83.9406 21.2849 83.0386C18.6749 84.7706 13.3969 87.4276 7.85387 85.2876C6.32557 84.7345 4.9518 83.8237 3.8473 82.6314C2.7428 81.439 1.93963 79.9997 1.50487 78.4336V78.4336Z" fill="#F9ACC0"/>
<path d="M55.5957 37.9006C54.2417 38.1526 53.2557 39.0356 53.4117 39.8726C53.5677 40.7096 54.7957 41.1956 56.1537 40.9426C56.4216 40.8939 56.6837 40.8175 56.9357 40.7146C56.931 39.7623 56.8746 38.8109 56.7667 37.8646C56.3769 37.8167 55.9819 37.8289 55.5957 37.9006Z" fill="#F9ACC0"/>
<path d="M160 74.9473V98.8623H90.1699C88.5996 98.8623 87.0447 98.553 85.5939 97.952C84.1432 97.351 82.825 96.4702 81.7147 95.3598C80.6043 94.2494 79.7236 92.9311 79.1228 91.4803C78.5219 90.0295 78.2128 88.4746 78.2129 86.9043C78.2129 83.7331 79.4726 80.6918 81.715 78.4494C83.9574 76.207 86.9987 74.9473 90.1699 74.9473H160Z" fill="#F3FBFF"/>
<path d="M86.55 83.3481V93.0781H91.436V91.7901H88.146V83.3481H86.55ZM92.2387 89.1861C92.2387 91.5661 93.8487 93.2041 95.8507 93.2041C97.1387 93.2041 98.0627 92.5881 98.5527 91.9301V93.0781H100.163V85.3641H98.5527V86.4841C98.0767 85.8541 97.1807 85.2381 95.8787 85.2381C93.8487 85.2381 92.2387 86.8061 92.2387 89.1861ZM98.5527 89.2141C98.5527 90.8801 97.4187 91.8181 96.2147 91.8181C95.0247 91.8181 93.8767 90.8521 93.8767 89.1861C93.8767 87.5201 95.0247 86.6241 96.2147 86.6241C97.4187 86.6241 98.5527 87.5621 98.5527 89.2141ZM107.733 93.0781H109.315V88.5281C109.315 86.3721 107.957 85.2381 106.151 85.2381C105.227 85.2381 104.373 85.6161 103.855 86.2461V85.3641H102.259V93.0781H103.855V88.7661C103.855 87.3521 104.625 86.6241 105.801 86.6241C106.963 86.6241 107.733 87.3521 107.733 88.7661V93.0781ZM110.819 89.1861C110.819 91.5661 112.429 93.2041 114.459 93.2041C115.719 93.2041 116.643 92.5741 117.133 91.9161V93.2041C117.133 94.7441 116.209 95.5001 114.977 95.5001C113.871 95.5001 113.017 94.9541 112.779 94.1561H111.197C111.393 95.8641 112.919 96.8861 114.977 96.8861C117.385 96.8861 118.743 95.3041 118.743 93.2041V85.3641H117.133V86.4841C116.657 85.8261 115.719 85.2381 114.459 85.2381C112.429 85.2381 110.819 86.8061 110.819 89.1861ZM117.133 89.2141C117.133 90.8801 115.999 91.8181 114.795 91.8181C113.605 91.8181 112.457 90.8521 112.457 89.1861C112.457 87.5201 113.605 86.6241 114.795 86.6241C115.999 86.6241 117.133 87.5621 117.133 89.2141ZM127.825 85.3641H126.229V89.6621C126.229 91.0761 125.459 91.8041 124.283 91.8041C123.121 91.8041 122.351 91.0761 122.351 89.6621V85.3641H120.769V89.9001C120.769 92.0561 122.141 93.1901 123.947 93.1901C124.857 93.1901 125.725 92.8121 126.229 92.1541V93.0781H127.825V85.3641ZM133.179 86.5821C134.369 86.5821 135.307 87.3381 135.335 88.5281H131.065C131.233 87.3101 132.101 86.5821 133.179 86.5821ZM136.791 90.7821H135.069C134.775 91.3841 134.229 91.8601 133.249 91.8601C132.073 91.8601 131.163 91.0901 131.051 89.8161H136.945C136.987 89.5501 137.001 89.2981 137.001 89.0321C137.001 86.7641 135.447 85.2381 133.249 85.2381C130.967 85.2381 129.399 86.7921 129.399 89.2141C129.399 91.6361 131.037 93.2041 133.249 93.2041C135.139 93.2041 136.357 92.1261 136.791 90.7821ZM138.039 89.1861C138.039 91.5661 139.649 93.2041 141.679 93.2041C142.939 93.2041 143.863 92.5741 144.353 91.9161V93.2041C144.353 94.7441 143.429 95.5001 142.197 95.5001C141.091 95.5001 140.237 94.9541 139.999 94.1561H138.417C138.613 95.8641 140.139 96.8861 142.197 96.8861C144.605 96.8861 145.963 95.3041 145.963 93.2041V85.3641H144.353V86.4841C143.877 85.8261 142.939 85.2381 141.679 85.2381C139.649 85.2381 138.039 86.8061 138.039 89.1861ZM144.353 89.2141C144.353 90.8801 143.219 91.8181 142.015 91.8181C140.825 91.8181 139.677 90.8521 139.677 89.1861C139.677 87.5201 140.825 86.6241 142.015 86.6241C143.219 86.6241 144.353 87.5621 144.353 89.2141ZM151.308 86.5821C152.498 86.5821 153.436 87.3381 153.464 88.5281H149.194C149.362 87.3101 150.23 86.5821 151.308 86.5821ZM154.92 90.7821H153.198C152.904 91.3841 152.358 91.8601 151.378 91.8601C150.202 91.8601 149.292 91.0901 149.18 89.8161H155.074C155.116 89.5501 155.13 89.2981 155.13 89.0321C155.13 86.7641 153.576 85.2381 151.378 85.2381C149.096 85.2381 147.528 86.7921 147.528 89.2141C147.528 91.6361 149.166 93.2041 151.378 93.2041C153.268 93.2041 154.486 92.1261 154.92 90.7821Z" fill="#3D5CFF"/>
</svg>
