<svg width="24" height="24" viewBox="0 0 24 24" fill="none" xmlns="http://www.w3.org/2000/svg">
<path d="M24 0V24H0V0H24Z" fill="white" fill-opacity="0.01"/>
<path d="M19 22H5C4.46957 22 3.96086 21.7893 3.58579 21.4142C3.21071 21.0391 3 20.5304 3 20V19C3.00159 17.6744 3.52888 16.4036 4.46622 15.4662C5.40356 14.5289 6.67441 14.0016 8 14H16C17.3256 14.0016 18.5964 14.5289 19.5338 15.4662C20.4711 16.4036 20.9984 17.6744 21 19V20C21 20.5304 20.7893 21.0391 20.4142 21.4142C20.0391 21.7893 19.5304 22 19 22ZM12 12C11.0111 12 10.0444 11.7068 9.22215 11.1573C8.3999 10.6079 7.75904 9.82705 7.3806 8.91342C7.00216 7.99979 6.90315 6.99446 7.09607 6.02455C7.289 5.05465 7.7652 4.16373 8.46447 3.46447C9.16373 2.76521 10.0546 2.289 11.0245 2.09608C11.9945 1.90315 12.9998 2.00217 13.9134 2.3806C14.827 2.75904 15.6079 3.39991 16.1573 4.22215C16.7068 5.0444 17 6.0111 17 7C16.9984 8.3256 16.4711 9.59644 15.5338 10.5338C14.5964 11.4711 13.3256 11.9984 12 12Z" fill="#F4F3FD"/>
</svg>
