<svg width="20" height="16" viewBox="0 0 20 16" fill="none" xmlns="http://www.w3.org/2000/svg">
<path d="M17.5 15.5H2.50001C2.05805 15.4995 1.63435 15.3237 1.32185 15.0112C1.00934 14.6987 0.833537 14.275 0.833008 13.833V2.167C0.833537 1.72505 1.00934 1.30135 1.32185 0.988838C1.63435 0.676329 2.05805 0.500529 2.50001 0.5L17.5 0.5C17.9419 0.50053 18.3655 0.676362 18.6778 0.988899C18.9902 1.30144 19.1657 1.72514 19.166 2.167V13.833C19.1657 14.2749 18.9902 14.6986 18.6778 15.0111C18.3655 15.3236 17.9419 15.4995 17.5 15.5ZM11.249 10.5C11.028 10.5 10.8159 10.5878 10.6596 10.7441C10.5033 10.9004 10.4155 11.1124 10.4155 11.3335C10.4155 11.5546 10.5033 11.7666 10.6596 11.9229C10.8159 12.0792 11.028 12.167 11.249 12.167H14.999C15.2201 12.167 15.4321 12.0792 15.5884 11.9229C15.7447 11.7666 15.8325 11.5546 15.8325 11.3335C15.8325 11.1124 15.7447 10.9004 15.5884 10.7441C15.4321 10.5878 15.2201 10.5 14.999 10.5H11.249ZM2.50001 3.834V5.5H17.5V3.834H2.50001Z" fill="#FF6905"/>
</svg>
