<svg width="16" height="21" viewBox="0 0 16 21" fill="none" xmlns="http://www.w3.org/2000/svg">
<path d="M15 20.4707H3C2.20435 20.4707 1.44129 20.1546 0.87868 19.592C0.31607 19.0294 0 18.2664 0 17.4707L0 3.4707C0 2.67505 0.31607 1.91199 0.87868 1.34938C1.44129 0.786774 2.20435 0.470703 3 0.470703L14 0.470703C14.5304 0.470703 15.0391 0.681417 15.4142 1.05649C15.7893 1.43156 16 1.94027 16 2.4707V15.4607C16.0006 15.6248 15.9618 15.7867 15.887 15.9327L15.342 17.0237C15.2731 17.1628 15.2372 17.316 15.2372 17.4712C15.2372 17.6264 15.2731 17.7796 15.342 17.9187L15.886 19.0057C15.9617 19.149 16.0008 19.3087 16 19.4707C16 19.7359 15.8946 19.9903 15.7071 20.1778C15.5196 20.3653 15.2652 20.4707 15 20.4707ZM3 16.4707C2.73478 16.4707 2.48043 16.5761 2.29289 16.7636C2.10536 16.9511 2 17.2055 2 17.4707C2 17.7359 2.10536 17.9903 2.29289 18.1778C2.48043 18.3653 2.73478 18.4707 3 18.4707H13.407C13.1791 17.8235 13.1791 17.1179 13.407 16.4707H3ZM6 5.4707C5.73478 5.4707 5.48043 5.57606 5.29289 5.7636C5.10536 5.95113 5 6.20549 5 6.4707C5 6.73592 5.10536 6.99027 5.29289 7.17781C5.48043 7.36535 5.73478 7.4707 6 7.4707H10C10.2652 7.4707 10.5196 7.36535 10.7071 7.17781C10.8946 6.99027 11 6.73592 11 6.4707C11 6.20549 10.8946 5.95113 10.7071 5.7636C10.5196 5.57606 10.2652 5.4707 10 5.4707H6Z" fill="#F4F3FD"/>
</svg>
