<svg width="34" height="36" viewBox="0 0 34 36" fill="none" xmlns="http://www.w3.org/2000/svg">
<path d="M33.011 14.9082H17V21.4842H26.149C25.9598 22.5243 25.5617 23.5153 24.9787 24.3972C24.3956 25.2791 23.6399 26.0336 22.757 26.6152V30.8802H28.251C29.9247 29.2682 31.2409 27.3224 32.1141 25.169C32.9874 23.0156 33.3982 20.7026 33.32 18.3802C33.3207 17.216 33.2173 16.054 33.011 14.9082V14.9082Z" fill="#4285F4"/>
<path d="M28.2511 30.8795L22.7571 26.6145C21.043 27.7176 19.038 28.2829 17.0001 28.2375C14.8807 28.2111 12.8229 27.5206 11.1165 26.2633C9.41016 25.0059 8.14112 23.245 7.48811 21.2285H1.80811V25.6285C3.22224 28.4456 5.39202 30.8139 8.07489 32.4686C10.7578 34.1234 13.848 34.9993 17.0001 34.9985C21.1385 35.1107 25.1634 33.6372 28.2511 30.8795Z" fill="#34A853"/>
<path d="M6.95521 18.0002C6.95761 16.9002 7.13759 15.8079 7.48821 14.7652V10.3652H1.80821C0.619186 12.7345 0 15.3488 0 17.9997C0 20.6507 0.619186 23.2649 1.80821 25.6342L7.48821 21.2342C7.1377 20.1919 6.95772 19.0999 6.95521 18.0002Z" fill="#FBBC05"/>
<path d="M23.4981 10.2992L28.3741 5.42319C25.2965 2.53471 21.2206 0.949321 17.0001 0.999189C13.8485 0.997953 10.7586 1.87314 8.07583 3.52694C5.39301 5.18075 3.22293 7.54801 1.80811 10.3642L7.48811 14.7642C8.14112 12.7477 9.41016 10.9868 11.1165 9.72945C12.8229 8.47209 14.8807 7.78159 17.0001 7.75519C19.4165 7.71522 21.7512 8.62927 23.4981 10.2992Z" fill="#EA4335"/>
</svg>
