<svg width="22" height="22" viewBox="0 0 22 22" fill="none" xmlns="http://www.w3.org/2000/svg">
<path d="M12.2 2.4957L19.2 7.7457C19.4484 7.932 19.65 8.17356 19.7889 8.45128C19.9277 8.72899 20 9.03521 20 9.3457V18.8457C20 19.3761 19.7893 19.8848 19.4142 20.2599C19.0391 20.635 18.5304 20.8457 18 20.8457H4C3.46957 20.8457 2.96086 20.635 2.58579 20.2599C2.21071 19.8848 2 19.3761 2 18.8457V9.3457C2 9.03521 2.07229 8.72899 2.21115 8.45128C2.35 8.17356 2.55161 7.932 2.8 7.7457L9.8 2.4957C10.1462 2.23606 10.5673 2.0957 11 2.0957C11.4327 2.0957 11.8538 2.23606 12.2 2.4957Z" fill="#F4F3FD"/>
</svg>
