<svg width="24" height="24" viewBox="0 0 24 24" fill="none" xmlns="http://www.w3.org/2000/svg">
<path d="M24 0V24H0V0H24Z" fill="white" fill-opacity="0.01"/>
<path d="M12 20.95C11.7533 20.9502 11.5121 20.8771 11.307 20.74L8.7 19H5C4.20435 19 3.44129 18.6839 2.87868 18.1213C2.31607 17.5587 2 16.7956 2 16V6C2 5.20435 2.31607 4.44129 2.87868 3.87868C3.44129 3.31607 4.20435 3 5 3H19C19.7956 3 20.5587 3.31607 21.1213 3.87868C21.6839 4.44129 22 5.20435 22 6V16C22 16.7956 21.6839 17.5587 21.1213 18.1213C20.5587 18.6839 19.7956 19 19 19H15.3L12.691 20.74C12.4864 20.8766 12.246 20.9496 12 20.95V20.95ZM15.5 10C15.2033 10 14.9133 10.088 14.6666 10.2528C14.42 10.4176 14.2277 10.6519 14.1142 10.926C14.0006 11.2001 13.9709 11.5017 14.0288 11.7926C14.0867 12.0836 14.2296 12.3509 14.4393 12.5607C14.6491 12.7704 14.9164 12.9133 15.2074 12.9712C15.4983 13.0291 15.7999 12.9994 16.074 12.8858C16.3481 12.7723 16.5824 12.58 16.7472 12.3334C16.912 12.0867 17 11.7967 17 11.5C17 11.1022 16.842 10.7206 16.5607 10.4393C16.2794 10.158 15.8978 10 15.5 10ZM8.5 10C8.20333 10 7.91332 10.088 7.66664 10.2528C7.41997 10.4176 7.22771 10.6519 7.11418 10.926C7.00065 11.2001 6.97094 11.5017 7.02882 11.7926C7.0867 12.0836 7.22956 12.3509 7.43934 12.5607C7.64912 12.7704 7.91639 12.9133 8.20736 12.9712C8.49834 13.0291 8.79994 12.9994 9.07403 12.8858C9.34811 12.7723 9.58238 12.58 9.7472 12.3334C9.91203 12.0867 10 11.7967 10 11.5C10 11.1022 9.84196 10.7206 9.56066 10.4393C9.27936 10.158 8.89782 10 8.5 10Z" fill="#F4F3FD"/>
</svg>
