<svg width="19" height="19" viewBox="0 0 19 19" fill="none" xmlns="http://www.w3.org/2000/svg">
<path d="M17.3781 18.2106C17.2685 18.2109 17.1599 18.1895 17.0586 18.1477C16.9574 18.1058 16.8654 18.0442 16.7881 17.9666L13.7271 14.9056C12.1504 16.1803 10.1449 16.8015 8.12375 16.6413C6.10264 16.481 4.22003 15.5515 2.86398 14.0443C1.50794 12.537 0.781809 10.567 0.835276 8.54025C0.888743 6.5135 1.71773 4.5845 3.15136 3.15087C4.58499 1.71724 6.51399 0.888254 8.54074 0.834788C10.5675 0.781321 12.5375 1.50745 14.0447 2.8635C15.552 4.21954 16.4815 6.10215 16.6418 8.12327C16.802 10.1444 16.1808 12.15 14.9061 13.7266L17.9671 16.7876C18.0839 16.904 18.1635 17.0525 18.1959 17.2143C18.2282 17.376 18.2118 17.5437 18.1487 17.6962C18.0856 17.8486 17.9787 17.9788 17.8415 18.0704C17.7043 18.162 17.543 18.2108 17.3781 18.2106ZM8.74906 2.49957C7.51293 2.49957 6.30456 2.86613 5.27675 3.55289C4.24894 4.23965 3.44786 5.21576 2.97482 6.3578C2.50177 7.49984 2.378 8.75651 2.61915 9.96889C2.86031 11.1813 3.45557 12.2949 4.32964 13.169C5.20372 14.0431 6.31737 14.6383 7.52975 14.8795C8.74213 15.1206 9.9988 14.9969 11.1408 14.5238C12.2829 14.0508 13.259 13.2497 13.9457 12.2219C14.6325 11.1941 14.9991 9.98571 14.9991 8.74957C14.9972 7.09254 14.3381 5.5039 13.1664 4.3322C11.9947 3.1605 10.4061 2.50143 8.74906 2.49957Z" fill="#3D5CFF"/>
</svg>
